<svg width="14" height="14" viewBox="0 0 14 14" fill="none" xmlns="http://www.w3.org/2000/svg">
<path d="M6.54227 0.112557C6.66231 -0.0374919 6.90239 -0.0374919 7.05244 0.112557L13.3245 6.38461C13.4745 6.53466 13.4745 6.74473 13.3245 6.89478L7.05244 13.1668C6.90239 13.3169 6.66231 13.3169 6.54227 13.1668L5.94207 12.5966C5.79202 12.4466 5.79202 12.2065 5.94207 12.0865L10.5936 7.40495L0.360245 7.40495C0.150175 7.40495 0.000126264 7.2549 0.000126517 7.04483L0.000126769 6.20455C0.000126295 6.02449 0.150175 5.84444 0.360244 5.84444L10.5936 5.84444L5.94207 1.19291C5.79202 1.07287 5.79202 0.832793 5.94207 0.682744L6.54227 0.112557Z" fill="#21214D"/>
</svg>
