<svg width="30" height="30" viewBox="0 0 30 30" fill="none" xmlns="http://www.w3.org/2000/svg">
<circle cx="14.9997" cy="14.9997" r="14.9997" fill="white"/>
<path d="M12.0021 11.4232C12.0021 12.9389 10.932 14.1676 9.61177 14.1676C8.29177 14.1676 7.22168 12.9389 7.22168 11.4232C7.22168 9.9076 8.29177 8.67916 9.61177 8.67916C10.932 8.67916 12.0021 9.9076 12.0021 11.4232Z" fill="#21214D"/>
<path d="M22.7782 11.4232C22.7782 12.9389 21.7081 14.1676 20.3881 14.1676C19.0681 14.1676 17.998 12.9389 17.998 11.4232C17.998 9.9076 19.0681 8.67916 20.3881 8.67916C21.7081 8.67916 22.7782 9.9076 22.7782 11.4232Z" fill="#21214D"/>
<path d="M10.0195 10.6091C10.0195 11.0881 9.63104 11.4768 9.15183 11.4768C8.67261 11.4768 8.28418 11.0881 8.28418 10.6091C8.28418 10.1299 8.67261 9.7415 9.15183 9.7415C9.63104 9.7415 10.0195 10.1299 10.0195 10.6091Z" fill="white"/>
<path d="M20.7959 10.6091C20.7959 11.0881 20.4074 11.4768 19.9282 11.4768C19.449 11.4768 19.0605 11.0881 19.0605 10.6091C19.0605 10.1299 19.449 9.7415 19.9282 9.7415C20.4074 9.7415 20.7959 10.1299 20.7959 10.6091Z" fill="white"/>
<path d="M21.4967 20.5452L21.4824 20.5311C21.0326 20.1416 20.2892 20.2512 19.7192 20.648C18.9543 21.1861 18.1221 21.5579 17.2652 21.7739C16.5639 21.9865 15.7991 22.1034 14.9987 22.1034C14.195 22.1034 13.4301 21.9865 12.7255 21.7705C11.8719 21.5545 11.0434 21.1825 10.2822 20.648C9.71195 20.2512 8.96847 20.1416 8.51873 20.5311L8.50098 20.5452C8.0549 20.924 8.17516 21.8164 8.88342 22.4255C10.4406 23.762 12.3493 24.5506 14.3411 24.7645C14.5584 24.7773 14.7775 24.7861 15 24.7861C15.2231 24.7861 15.4427 24.7773 15.6606 24.7645C17.652 24.5503 19.5606 23.762 21.1143 22.4255C21.8259 21.8164 21.9465 20.924 21.4967 20.5452Z" fill="#21214D"/>
</svg>
