<svg width="38" height="39" viewBox="0 0 38 39" fill="none" xmlns="http://www.w3.org/2000/svg">
<circle cx="18.9996" cy="19.0822" r="18.9996" fill="#89E780"/>
<path d="M15.2027 14.552C15.2027 16.4718 13.8472 18.0282 12.1749 18.0282C10.5029 18.0282 9.14746 16.4718 9.14746 14.552C9.14746 12.6322 10.5029 11.0762 12.1749 11.0762C13.8472 11.0762 15.2027 12.6322 15.2027 14.552Z" fill="#21214D"/>
<path d="M28.8526 14.552C28.8526 16.4718 27.4972 18.0282 25.8252 18.0282C24.1532 18.0282 22.7977 16.4718 22.7977 14.552C22.7977 12.6322 24.1532 11.0762 25.8252 11.0762C27.4972 11.0762 28.8526 12.6322 28.8526 14.552Z" fill="#21214D"/>
<path d="M12.6911 13.5207C12.6911 14.1274 12.1991 14.6198 11.5921 14.6198C10.9851 14.6198 10.493 14.1274 10.493 13.5207C10.493 12.9137 10.9851 12.4217 11.5921 12.4217C12.1991 12.4217 12.6911 12.9137 12.6911 13.5207Z" fill="white"/>
<path d="M26.3414 13.5207C26.3414 14.1274 25.8493 14.6198 25.2423 14.6198C24.6353 14.6198 24.1433 14.1274 24.1433 13.5207C24.1433 12.9137 24.6353 12.4217 25.2423 12.4217C25.8493 12.4217 26.3414 12.9137 26.3414 13.5207Z" fill="white"/>
<path d="M27.2292 26.1064L27.211 26.0886C26.6413 25.5952 25.6996 25.734 24.9776 26.2366C24.0088 26.9183 22.9547 27.3891 21.8692 27.6627C20.981 27.932 20.0122 28.0801 18.9984 28.0801C17.9803 28.0801 17.0115 27.932 16.119 27.6584C15.0378 27.3848 13.9884 26.9137 13.0241 26.2366C12.3018 25.734 11.3601 25.5952 10.7904 26.0886L10.7679 26.1064C10.2029 26.5862 10.3552 27.7166 11.2523 28.4882C13.2247 30.181 15.6425 31.1799 18.1654 31.4508C18.4406 31.467 18.7182 31.4783 19 31.4783C19.2826 31.4783 19.5608 31.467 19.8367 31.4508C22.3592 31.1796 24.7767 30.181 26.7448 28.4882C27.6462 27.7166 27.7989 26.5862 27.2292 26.1064Z" fill="#21214D"/>
</svg>
