<svg width="38" height="38" viewBox="0 0 38 38" fill="none" xmlns="http://www.w3.org/2000/svg">
<ellipse cx="18.9996" cy="18.9996" rx="18.9996" ry="18.9996" fill="#89CAFF"/>
<path d="M13.7034 31.2882L13.7216 31.2978C14.2963 31.5493 15.118 31.2909 15.695 30.8141C16.4679 30.1684 17.3452 29.6569 18.277 29.2795C19.0334 28.9388 19.878 28.6699 20.7827 28.4977C21.6911 28.3246 22.5756 28.2644 23.4087 28.3057C24.4099 28.315 25.4098 28.4689 26.3614 28.7828C27.0732 29.0149 27.9323 28.9527 28.3744 28.508L28.3919 28.4915C28.8317 28.0569 28.5439 27.2854 27.6399 26.8934C25.6523 26.0342 23.3607 25.7406 21.0731 25.9781C20.8253 26.0132 20.5762 26.0525 20.3247 26.1003C20.0726 26.1483 19.8258 26.2035 19.5816 26.2619C17.3673 26.8819 15.3444 27.9971 13.8158 29.5256C13.115 30.2233 13.1305 31.0464 13.7034 31.2882Z" fill="#21214D"/>
<path d="M15.2027 15.4413C15.2027 17.3612 13.8472 18.9175 12.1752 18.9175C10.5029 18.9175 9.14746 17.3612 9.14746 15.4413C9.14746 13.5214 10.5029 11.9652 12.1752 11.9652C13.8472 11.9652 15.2027 13.5214 15.2027 15.4413Z" fill="#21214D"/>
<path d="M28.8529 15.4413C28.8529 17.3612 27.4975 18.9175 25.8252 18.9175C24.1532 18.9175 22.7977 17.3612 22.7977 15.4413C22.7977 13.5214 24.1532 11.9652 25.8252 11.9652C27.4975 11.9652 28.8529 13.5214 28.8529 15.4413Z" fill="#21214D"/>
<path d="M12.691 14.4098C12.691 15.0167 12.199 15.5088 11.5919 15.5088C10.9849 15.5088 10.4929 15.0167 10.4929 14.4098C10.4929 13.8031 10.9849 13.3107 11.5919 13.3107C12.199 13.3107 12.691 13.8031 12.691 14.4098Z" fill="white"/>
<path d="M26.3414 14.4098C26.3414 15.0167 25.8493 15.5088 25.2423 15.5088C24.6353 15.5088 24.1433 15.0167 24.1433 14.4098C24.1433 13.8031 24.6353 13.3107 25.2423 13.3107C25.8493 13.3107 26.3414 13.8031 26.3414 14.4098Z" fill="white"/>
</svg>
