<svg width="30" height="30" viewBox="0 0 30 30" fill="none" xmlns="http://www.w3.org/2000/svg">
<circle cx="14.9997" cy="14.9997" r="14.9997" fill="white"/>
<path d="M10.8187 24.7012L10.833 24.7088C11.2867 24.9073 11.9355 24.7033 12.3909 24.3269C13.0011 23.8172 13.6937 23.4134 14.4294 23.1154C15.0265 22.8465 15.6933 22.6341 16.4075 22.4982C17.1247 22.3615 17.823 22.314 18.4807 22.3466C19.2711 22.354 20.0605 22.4754 20.8118 22.7233C21.3737 22.9065 22.052 22.8574 22.401 22.5063L22.4149 22.4933C22.7621 22.1502 22.5349 21.5411 21.8211 21.2316C20.252 20.5534 18.4428 20.3215 16.6368 20.509C16.4412 20.5367 16.2445 20.5677 16.046 20.6055C15.8469 20.6434 15.6521 20.687 15.4593 20.7331C13.7112 21.2225 12.1142 22.103 10.9074 23.3097C10.3541 23.8605 10.3663 24.5103 10.8187 24.7012Z" fill="#21214D"/>
<path d="M12.0021 12.1905C12.0021 13.7062 10.932 14.9348 9.61203 14.9348C8.29176 14.9348 7.22168 13.7062 7.22168 12.1905C7.22168 10.6748 8.29176 9.44614 9.61203 9.44614C10.932 9.44614 12.0021 10.6748 12.0021 12.1905Z" fill="#21214D"/>
<path d="M22.7785 12.1905C22.7785 13.7062 21.7084 14.9348 20.3881 14.9348C19.0681 14.9348 17.998 13.7062 17.998 12.1905C17.998 10.6748 19.0681 9.44614 20.3881 9.44614C21.7084 9.44614 22.7785 10.6748 22.7785 12.1905Z" fill="#21214D"/>
<path d="M10.0195 11.3761C10.0195 11.8552 9.63105 12.2437 9.15183 12.2437C8.67262 12.2437 8.28418 11.8552 8.28418 11.3761C8.28418 10.897 8.67262 10.5083 9.15183 10.5083C9.63105 10.5083 10.0195 10.897 10.0195 11.3761Z" fill="white"/>
<path d="M20.7959 11.3761C20.7959 11.8552 20.4074 12.2437 19.9282 12.2437C19.449 12.2437 19.0605 11.8552 19.0605 11.3761C19.0605 10.897 19.449 10.5083 19.9282 10.5083C20.4074 10.5083 20.7959 10.897 20.7959 11.3761Z" fill="white"/>
</svg>
