<svg width="19" height="20" viewBox="0 0 19 20" fill="none" xmlns="http://www.w3.org/2000/svg">
<g filter="url(#filter0_d_2142_5677)">
<mask id="path-1-outside-1_2142_5677" maskUnits="userSpaceOnUse" x="2.00006" y="1" width="15" height="16" fill="black">
<rect fill="white" x="2.00006" y="1" width="15" height="16"/>
<path fill-rule="evenodd" clip-rule="evenodd" d="M7.99982 16C7.99982 16 5.79405 14.3013 5.01804 13C4.24202 11.6987 2.77151 10.041 3.03019 9C3.28886 7.95899 4.24202 7.63091 5.01804 8.41167C5.79405 9.19243 6.3168 10.8841 6.83414 10.6238C7.35149 10.3636 6.96348 7.89117 6.44614 6.45978C5.92879 5.02839 5.38942 2 6.44614 2C7.50285 2 7.50285 3 7.99982 4.5C8.49678 6 8.10877 8 8.49678 8C8.88479 8 9.03285 7.65063 9.03285 7C9.03285 6.82319 9.06731 6.67375 9.13727 6.54986C9.32474 6.21788 9.76715 6.0694 10.4846 6.0694C11.4699 6.0694 10.9816 8 11.4786 8C11.9755 8 11.9755 8.04101 11.9755 7C11.9755 5.95899 12.4363 6.0694 13.4303 6.0694C14.4242 6.0694 13.943 8 14.4603 8C14.9777 8 14.4603 7 14.9573 7C15.4543 7 15.9512 7.15773 15.9512 9.5C15.9512 11.8423 16.2303 11.959 15.4543 13C14.6782 14.041 13.9634 15 13.9634 15C13.9634 15 13.9634 16 13.4303 16C12.8972 16 12.6222 15 11.9755 15C11.3288 15 10.9816 16 10.9816 16H7.99982ZM13.9637 14V10H12.9698V14H13.9637ZM10.9816 13C10.9816 13.2709 11.2121 14 11.4786 14C11.753 14 11.9755 13.2754 11.9755 13V11C11.9755 10.7291 11.745 10 11.4786 10C11.2041 10 10.9816 10.7246 10.9816 11V13ZM8.9942 13C8.9942 13.2709 9.22473 14 9.49116 14C9.76563 14 9.98813 13.2754 9.98813 13V11C9.98813 10.7291 9.7576 10 9.49116 10C9.2167 10 8.9942 10.7246 8.9942 11V13Z"/>
</mask>
<path fill-rule="evenodd" clip-rule="evenodd" d="M7.99982 16C7.99982 16 5.79405 14.3013 5.01804 13C4.24202 11.6987 2.77151 10.041 3.03019 9C3.28886 7.95899 4.24202 7.63091 5.01804 8.41167C5.79405 9.19243 6.3168 10.8841 6.83414 10.6238C7.35149 10.3636 6.96348 7.89117 6.44614 6.45978C5.92879 5.02839 5.38942 2 6.44614 2C7.50285 2 7.50285 3 7.99982 4.5C8.49678 6 8.10877 8 8.49678 8C8.88479 8 9.03285 7.65063 9.03285 7C9.03285 6.82319 9.06731 6.67375 9.13727 6.54986C9.32474 6.21788 9.76715 6.0694 10.4846 6.0694C11.4699 6.0694 10.9816 8 11.4786 8C11.9755 8 11.9755 8.04101 11.9755 7C11.9755 5.95899 12.4363 6.0694 13.4303 6.0694C14.4242 6.0694 13.943 8 14.4603 8C14.9777 8 14.4603 7 14.9573 7C15.4543 7 15.9512 7.15773 15.9512 9.5C15.9512 11.8423 16.2303 11.959 15.4543 13C14.6782 14.041 13.9634 15 13.9634 15C13.9634 15 13.9634 16 13.4303 16C12.8972 16 12.6222 15 11.9755 15C11.3288 15 10.9816 16 10.9816 16H7.99982ZM13.9637 14V10H12.9698V14H13.9637ZM10.9816 13C10.9816 13.2709 11.2121 14 11.4786 14C11.753 14 11.9755 13.2754 11.9755 13V11C11.9755 10.7291 11.745 10 11.4786 10C11.2041 10 10.9816 10.7246 10.9816 11V13ZM8.9942 13C8.9942 13.2709 9.22473 14 9.49116 14C9.76563 14 9.98813 13.2754 9.98813 13V11C9.98813 10.7291 9.7576 10 9.49116 10C9.2167 10 8.9942 10.7246 8.9942 11V13Z" fill="white"/>
<path d="M7.99982 16L7.38966 16.7923L7.65938 17H7.99982V16ZM3.03019 9L4.00067 9.24115L4.00067 9.24115L3.03019 9ZM5.01804 8.41167L4.30878 9.11662L4.30878 9.11662L5.01804 8.41167ZM6.83414 10.6238L6.38475 9.73048L6.38475 9.73048L6.83414 10.6238ZM6.44614 6.45978L7.38659 6.11987L7.38659 6.11987L6.44614 6.45978ZM6.44614 2L6.44614 1L6.44614 1L6.44614 2ZM8.49678 8L8.49678 9L8.49678 9L8.49678 8ZM9.03285 7L8.03285 7L9.03285 7ZM9.13727 6.54986L8.26651 6.05814L8.26651 6.05814L9.13727 6.54986ZM10.4846 6.0694L10.4846 5.0694L10.4846 5.0694L10.4846 6.0694ZM11.4786 8L11.4786 7L11.4786 7L11.4786 8ZM11.9755 7L10.9755 7L10.9755 7L11.9755 7ZM13.4303 6.0694L13.4303 5.0694L13.4303 5.0694L13.4303 6.0694ZM14.4603 8L14.4603 9L14.4603 9L14.4603 8ZM14.9573 7L14.9573 6L14.9573 6L14.9573 7ZM15.9512 9.5L14.9512 9.5L15.9512 9.5ZM15.4543 13L16.256 13.5977L16.256 13.5977L15.4543 13ZM13.9634 15L13.1616 14.4023L12.9634 14.6683V15H13.9634ZM13.4303 16L13.4303 15L13.4303 15L13.4303 16ZM11.9755 15L11.9755 14L11.9755 15ZM10.9816 16V17H11.6929L11.9263 16.328L10.9816 16ZM13.9637 14V15H14.9637V14H13.9637ZM13.9637 10H14.9637V9H13.9637V10ZM12.9698 10V9H11.9698V10H12.9698ZM12.9698 14H11.9698V15H12.9698V14ZM7.99982 16C8.60998 15.2077 8.61005 15.2078 8.61011 15.2078C8.61012 15.2078 8.61017 15.2079 8.61019 15.2079C8.61022 15.2079 8.61023 15.2079 8.6102 15.2079C8.61014 15.2078 8.60995 15.2077 8.60963 15.2075C8.60899 15.207 8.60783 15.2061 8.60616 15.2048C8.60283 15.2022 8.59747 15.198 8.5902 15.1923C8.57566 15.181 8.55349 15.1636 8.52456 15.1407C8.46667 15.0948 8.38191 15.0269 8.27729 14.9411C8.06754 14.769 7.78047 14.5269 7.47126 14.2468C6.8256 13.662 6.18136 12.9983 5.87691 12.4878L5.01804 13L4.15917 13.5122C4.63074 14.3029 5.47738 15.1393 6.12861 15.7291C6.46783 16.0364 6.78071 16.3003 7.0088 16.4874C7.12309 16.5811 7.21671 16.6561 7.28248 16.7082C7.31538 16.7343 7.34136 16.7547 7.35951 16.7689C7.36858 16.7759 7.37571 16.7815 7.38077 16.7854C7.3833 16.7874 7.38532 16.7889 7.3868 16.7901C7.38754 16.7906 7.38815 16.7911 7.38863 16.7915C7.38887 16.7917 7.38907 16.7918 7.38924 16.792C7.38933 16.792 7.38943 16.7921 7.38948 16.7921C7.38957 16.7922 7.38966 16.7923 7.99982 16ZM5.01804 13L5.87691 12.4878C5.66392 12.1307 5.40798 11.7566 5.16868 11.4073C4.92197 11.0471 4.68929 10.708 4.48933 10.3809C4.2875 10.0507 4.14514 9.77411 4.0656 9.54859C3.9827 9.31353 4.00308 9.23147 4.00067 9.24115L3.03019 9L2.0597 8.75885C1.92796 9.28903 2.03514 9.80457 2.17946 10.2138C2.32715 10.6325 2.55242 11.0469 2.78288 11.4239C3.01521 11.804 3.27949 12.1884 3.51867 12.5375C3.76527 12.8975 3.98415 13.2187 4.15917 13.5122L5.01804 13ZM3.03019 9L4.00067 9.24115C4.06904 8.96602 4.17644 8.96218 4.1276 8.9774C4.10912 8.98316 4.10193 8.97728 4.12039 8.983C4.14276 8.98993 4.21085 9.01809 4.30878 9.11662L5.01804 8.41167L5.7273 7.70672C5.14249 7.11835 4.33747 6.81716 3.53262 7.06795C2.74852 7.31227 2.25 7.99298 2.0597 8.75885L3.03019 9ZM5.01804 8.41167L4.30878 9.11662C4.58405 9.39357 4.81769 9.84192 5.16527 10.4221C5.30686 10.6584 5.5013 10.9715 5.73333 11.2041C5.85207 11.3231 6.04321 11.4863 6.3089 11.5793C6.61393 11.6861 6.96147 11.6792 7.28354 11.5172L6.83414 10.6238L6.38475 9.73048C6.57748 9.63353 6.79551 9.63064 6.9699 9.6917C7.10495 9.73899 7.16431 9.80664 7.14917 9.79147C7.11343 9.75564 7.03169 9.64583 6.88092 9.39418C6.64379 8.99838 6.22804 8.21053 5.7273 7.70672L5.01804 8.41167ZM6.83414 10.6238L7.28354 11.5172C7.65898 11.3283 7.83533 11.0024 7.91648 10.7983C8.0026 10.5817 8.04097 10.3552 8.05982 10.1615C8.098 9.7692 8.07357 9.31113 8.02138 8.86483C7.91616 7.96496 7.6734 6.91339 7.38659 6.11987L6.44614 6.45978L5.50568 6.79969C5.73622 7.43755 5.94613 8.33788 6.03491 9.09712C6.07973 9.48037 6.08763 9.77866 6.06922 9.96783C6.05978 10.0649 6.04764 10.0854 6.05797 10.0594C6.06334 10.0459 6.13864 9.85429 6.38475 9.73048L6.83414 10.6238ZM6.44614 6.45978L7.38659 6.11987C7.15569 5.481 6.91342 4.4562 6.85328 3.62128C6.82222 3.19014 6.84808 2.91007 6.88706 2.77734C6.90534 2.71511 6.90436 2.76409 6.82958 2.83907C6.72947 2.93945 6.58273 3 6.44614 3L6.44614 2L6.44614 1C6.04536 1 5.68432 1.15518 5.41346 1.42677C5.16794 1.67296 5.03978 1.96972 4.96811 2.21376C4.82718 2.69359 4.82208 3.26008 4.85845 3.76496C4.93315 4.80208 5.21924 6.00717 5.50568 6.79969L6.44614 6.45978ZM6.44614 2L6.44614 3C6.54324 3 6.51738 3.01908 6.4651 2.9799C6.43032 2.95383 6.45699 2.95379 6.51889 3.09323C6.58317 3.23804 6.64565 3.43804 6.73393 3.74937C6.81664 4.04106 6.91755 4.41304 7.05056 4.8145L7.99982 4.5L8.94908 4.1855C8.8336 3.83696 8.74815 3.52144 8.65807 3.20376C8.57355 2.90571 8.47681 2.57446 8.34688 2.28177C8.21457 1.98371 8.01205 1.63992 7.66453 1.37947C7.29952 1.10592 6.87739 1 6.44614 1L6.44614 2ZM7.99982 4.5L7.05056 4.8145C7.24453 5.39996 7.27538 6.12716 7.28935 6.83231C7.29552 7.14385 7.29883 7.51005 7.33281 7.78618C7.34873 7.91555 7.38204 8.13254 7.4819 8.3418C7.58914 8.56654 7.89652 9 8.49678 9L8.49678 8L8.49678 7C9.00004 7 9.23467 7.37096 9.28692 7.48046C9.33179 7.57449 9.32788 7.62351 9.31784 7.54195C9.29991 7.3962 9.29641 7.16865 9.28896 6.79269C9.27569 6.12284 9.25207 5.10004 8.94908 4.1855L7.99982 4.5ZM8.49678 8L8.49678 9C8.74848 9 9.02185 8.9415 9.27549 8.78246C9.52732 8.62454 9.69469 8.4083 9.80223 8.19619C9.99816 7.80975 10.0329 7.36278 10.0329 7L9.03285 7L8.03285 7C8.03285 7.128 8.02534 7.21591 8.01629 7.27225C8.00678 7.3315 7.99987 7.32834 8.01841 7.29178C8.04043 7.24835 8.09803 7.16011 8.21297 7.08804C8.32972 7.01483 8.43908 7 8.49678 7L8.49678 8ZM9.03285 7L10.0329 7C10.0329 6.97606 10.0352 6.97128 10.033 6.98072C10.0306 6.99122 10.0238 7.01359 10.008 7.04158L9.13727 6.54986L8.26651 6.05814C8.093 6.36541 8.03285 6.69372 8.03285 7L9.03285 7ZM9.13727 6.54986L10.008 7.04158C9.95412 7.13704 9.88708 7.14849 9.94373 7.12858C10.0176 7.10261 10.1813 7.0694 10.4846 7.0694L10.4846 6.0694L10.4846 5.0694C9.74654 5.0694 8.75153 5.19927 8.26651 6.05814L9.13727 6.54986ZM10.4846 6.0694V7.0694C10.4357 7.0694 10.3437 7.05456 10.2481 6.99291C10.1595 6.93579 10.1202 6.87234 10.1115 6.85665C10.1049 6.84479 10.1152 6.85995 10.1308 6.92241C10.1459 6.98271 10.1596 7.06105 10.1732 7.16455C10.1914 7.30353 10.2245 7.67936 10.2751 7.91159C10.3028 8.03833 10.3612 8.26688 10.5084 8.48189C10.6884 8.74487 11.0176 9 11.4786 9L11.4786 8L11.4786 7C11.8152 7 12.051 7.1948 12.1588 7.3522C12.2337 7.46163 12.241 7.53935 12.2291 7.4851C12.2008 7.35534 12.2012 7.24852 12.1562 6.90485C12.1238 6.65751 12.0609 6.24731 11.8599 5.88547C11.7506 5.68878 11.584 5.4745 11.3316 5.31181C11.0721 5.14457 10.7799 5.0694 10.4846 5.0694V6.0694ZM11.4786 8V9C11.5336 9 11.758 9.00722 11.9409 8.97471C12.059 8.95371 12.2291 8.90798 12.4022 8.79457C12.5858 8.67428 12.7157 8.51557 12.8013 8.35048C12.9413 8.08019 12.9586 7.79012 12.9663 7.64982C12.9759 7.47341 12.9755 7.24786 12.9755 7L11.9755 7L10.9755 7C10.9755 7.27264 10.9752 7.43234 10.9692 7.54103C10.9664 7.59261 10.9636 7.60548 10.9652 7.59636C10.9664 7.58981 10.9783 7.52134 11.0255 7.43027C11.08 7.32512 11.1711 7.21008 11.3062 7.12158C11.4308 7.03997 11.5426 7.01415 11.5909 7.00557C11.6343 6.99785 11.6561 6.99929 11.6234 6.99991C11.5884 7.00058 11.5582 7 11.4786 7V8ZM11.9755 7L12.9755 7C12.9755 6.9045 12.981 6.84428 12.9861 6.80998C12.9913 6.77545 12.9941 6.78177 12.9811 6.81178C12.9665 6.8458 12.9356 6.90053 12.88 6.95607C12.824 7.01189 12.766 7.04552 12.7238 7.0636C12.6862 7.07971 12.6684 7.08038 12.6879 7.07732C12.7078 7.07421 12.7466 7.07014 12.816 7.06789C12.8851 7.06566 12.9669 7.06567 13.0732 7.06665C13.1737 7.06757 13.3 7.0694 13.4303 7.0694L13.4303 6.0694L13.4303 5.0694C13.2312 5.0694 12.9524 5.06244 12.7513 5.06894C12.5438 5.07565 12.2361 5.09678 11.9366 5.22504C11.5812 5.3772 11.305 5.64833 11.145 6.01905C11.0067 6.33925 10.9755 6.68716 10.9755 7L11.9755 7ZM13.4303 6.0694V7.0694C13.3841 7.0694 13.2952 7.05543 13.2019 6.99607C13.1153 6.94099 13.0766 6.87968 13.0681 6.86472C13.0619 6.85367 13.0725 6.86934 13.0888 6.93204C13.1046 6.99269 13.1192 7.07132 13.134 7.17543C13.1542 7.31747 13.1912 7.69155 13.2482 7.93035C13.2792 8.06041 13.3436 8.29016 13.4989 8.50423C13.688 8.76494 14.0167 9 14.4603 9L14.4603 8L14.4603 7C14.7746 7 15.0052 7.17472 15.1178 7.32986C15.1965 7.43835 15.2058 7.51727 15.1936 7.46634C15.1642 7.34315 15.1625 7.23458 15.1141 6.89397C15.0791 6.64763 15.012 6.23784 14.8074 5.8774C14.6962 5.68144 14.528 5.4693 14.2755 5.30864C14.0162 5.1437 13.725 5.0694 13.4303 5.0694V6.0694ZM14.4603 8L14.4603 9C14.6904 9 14.9644 8.94176 15.2111 8.75606C15.4525 8.57444 15.5729 8.34212 15.6327 8.16692C15.6899 7.99937 15.7058 7.84437 15.7119 7.74634C15.7183 7.64554 15.717 7.5471 15.7164 7.48981C15.7157 7.41799 15.7156 7.38946 15.7167 7.36833C15.7179 7.34491 15.7187 7.38632 15.6967 7.45611C15.673 7.53148 15.6065 7.69094 15.4364 7.82601C15.2571 7.96845 15.069 8 14.9573 8L14.9573 7L14.9573 6C14.7214 6 14.4407 6.0628 14.1925 6.25992C13.9536 6.44968 13.8419 6.68727 13.7888 6.85639C13.7374 7.01993 13.7243 7.17071 13.7194 7.26448C13.7144 7.36054 13.716 7.45701 13.7165 7.51019C13.7172 7.5779 13.7169 7.60446 13.7159 7.62085C13.7147 7.64 13.7148 7.59438 13.74 7.52058C13.7678 7.43913 13.8399 7.28493 14.0085 7.158C14.1826 7.02699 14.3596 7 14.4603 7L14.4603 8ZM14.9573 7V8C15.0419 8 14.9964 8.01049 14.9186 7.97616C14.8129 7.92952 14.7676 7.85937 14.7685 7.86089C14.7818 7.88468 14.8336 7.9959 14.8781 8.27723C14.9215 8.55222 14.9512 8.9452 14.9512 9.5L15.9512 9.5L16.9512 9.5C16.9512 8.3195 16.837 7.46031 16.5128 6.88241C16.3273 6.55171 16.0646 6.29574 15.7259 6.14632C15.4151 6.00923 15.1212 6 14.9573 6V7ZM15.9512 9.5L14.9512 9.5C14.9512 10.1063 14.9694 10.5692 14.9835 10.928C14.9982 11.3031 15.0055 11.5128 14.9956 11.6778C14.9873 11.8141 14.9687 11.8826 14.9399 11.95C14.9029 12.0364 14.8295 12.165 14.6525 12.4023L15.4543 13L16.256 13.5977C16.4671 13.3145 16.6497 13.0381 16.7787 12.7367C16.9158 12.4162 16.9729 12.1139 16.9919 11.7981C17.0092 11.5111 16.9952 11.1873 16.9819 10.8493C16.968 10.4949 16.9512 10.0648 16.9512 9.5L15.9512 9.5ZM15.4543 13L14.6525 12.4023C14.2645 12.9228 13.8918 13.4228 13.6161 13.7927C13.4782 13.9777 13.3646 14.1301 13.2854 14.2362C13.2459 14.2893 13.2149 14.3308 13.1939 14.3591C13.1833 14.3732 13.1753 14.384 13.1698 14.3913C13.1671 14.395 13.1651 14.3977 13.1637 14.3996C13.163 14.4005 13.1625 14.4012 13.1621 14.4016C13.162 14.4019 13.1618 14.402 13.1618 14.4022C13.1617 14.4022 13.1617 14.4023 13.1617 14.4023C13.1616 14.4023 13.1616 14.4023 13.1616 14.4023C13.1616 14.4023 13.1616 14.4023 13.9634 15C14.7651 15.5977 14.7651 15.5977 14.7651 15.5976C14.7651 15.5976 14.7651 15.5976 14.7652 15.5976C14.7652 15.5976 14.7652 15.5975 14.7653 15.5975C14.7653 15.5974 14.7655 15.5972 14.7656 15.597C14.766 15.5965 14.7665 15.5958 14.7672 15.5949C14.7686 15.593 14.7706 15.5903 14.7733 15.5866C14.7788 15.5794 14.7868 15.5685 14.7974 15.5544C14.8184 15.5262 14.8494 15.4846 14.8889 15.4316C14.9681 15.3254 15.0817 15.173 15.2196 14.988C15.4953 14.6182 15.868 14.1182 16.256 13.5977L15.4543 13ZM13.9634 15C12.9634 15 12.9634 14.9997 12.9634 14.9995C12.9634 14.9994 12.9634 14.9992 12.9634 14.999C12.9634 14.9987 12.9634 14.9984 12.9634 14.9981C12.9634 14.9975 12.9634 14.997 12.9634 14.9965C12.9634 14.9955 12.9634 14.9948 12.9634 14.9943C12.9634 14.9932 12.9634 14.993 12.9634 14.9935C12.9634 14.9945 12.9633 14.9985 12.9631 15.0049C12.9626 15.0181 12.9614 15.0401 12.959 15.0677C12.9536 15.1277 12.944 15.1916 12.9305 15.2424C12.9134 15.3063 12.9088 15.28 12.9575 15.2192C12.9871 15.1821 13.0435 15.1241 13.1339 15.0756C13.2292 15.0245 13.3333 15 13.4303 15V16V17C13.9293 17 14.2971 16.7464 14.5195 16.4683C14.718 16.22 14.8134 15.9437 14.863 15.7576C14.9161 15.5584 14.9398 15.3723 14.9511 15.2448C14.957 15.1787 14.96 15.1226 14.9616 15.081C14.9624 15.0601 14.9628 15.0426 14.9631 15.029C14.9632 15.0222 14.9633 15.0163 14.9633 15.0115C14.9633 15.009 14.9634 15.0069 14.9634 15.005C14.9634 15.004 14.9634 15.0031 14.9634 15.0023C14.9634 15.0019 14.9634 15.0015 14.9634 15.0011C14.9634 15.0009 14.9634 15.0006 14.9634 15.0005C14.9634 15.0003 14.9634 15 13.9634 15ZM13.4303 16L13.4303 15C13.6321 15 13.7384 15.1002 13.7148 15.0802C13.6785 15.0496 13.6349 14.9997 13.5019 14.8459C13.3986 14.7265 13.2229 14.5229 13.0005 14.3561C12.761 14.1766 12.4168 14 11.9755 14L11.9755 15L11.9755 16C11.8576 16 11.7903 15.9484 11.8008 15.9564C11.8285 15.9771 11.8762 16.0235 11.9891 16.1541C12.0722 16.2503 12.2378 16.4504 12.4232 16.6073C12.6213 16.7748 12.9619 17 13.4303 17L13.4303 16ZM11.9755 15L11.9755 14C11.115 14 10.6054 14.645 10.4055 14.943C10.2825 15.1265 10.1934 15.3029 10.1358 15.4296C10.1063 15.4943 10.0835 15.5496 10.0672 15.5909C10.0591 15.6117 10.0525 15.6291 10.0474 15.6427C10.0449 15.6496 10.0428 15.6555 10.041 15.6603C10.0402 15.6628 10.0394 15.665 10.0387 15.6669C10.0384 15.6679 10.038 15.6688 10.0377 15.6696C10.0376 15.6701 10.0375 15.6705 10.0373 15.6709C10.0372 15.671 10.0372 15.6713 10.0371 15.6714C10.037 15.6717 10.0369 15.672 10.9816 16C11.9263 16.328 11.9262 16.3283 11.9261 16.3286C11.9261 16.3286 11.926 16.3289 11.9259 16.3291C11.9258 16.3294 11.9257 16.3297 11.9256 16.33C11.9254 16.3306 11.9252 16.3311 11.925 16.3316C11.9247 16.3326 11.9244 16.3334 11.9242 16.3339C11.9238 16.335 11.9237 16.3353 11.9239 16.3348C11.9243 16.3338 11.9257 16.3298 11.9283 16.3232C11.9336 16.3098 11.943 16.2869 11.9562 16.2579C11.9838 16.1971 12.022 16.1235 12.0666 16.057C12.0883 16.0245 12.1083 15.9988 12.1253 15.9796C12.1425 15.9601 12.1521 15.9527 12.1521 15.9527C12.1505 15.9539 12.0865 16 11.9755 16L11.9755 15ZM10.9816 16V15H7.99982V16V17H10.9816V16ZM13.9637 14H14.9637V10H13.9637H12.9637V14H13.9637ZM13.9637 10V9H12.9698V10V11H13.9637V10ZM12.9698 10H11.9698V14H12.9698H13.9698V10H12.9698ZM12.9698 14V15H13.9637V14V13H12.9698V14ZM10.9816 13H9.9816C9.9816 13.3159 10.088 13.7033 10.2084 13.9894C10.2726 14.1419 10.37 14.3375 10.5129 14.5131C10.6269 14.6531 10.9481 15 11.4786 15V14V13C11.6816 13 11.8342 13.0708 11.9219 13.1272C12.0053 13.1809 12.0504 13.2338 12.0641 13.2506C12.0888 13.281 12.0787 13.2774 12.0519 13.2138C12.029 13.1594 12.008 13.0943 11.9937 13.0352C11.9868 13.0066 11.9829 12.9856 11.9811 12.9736C11.9789 12.9583 11.9816 12.9691 11.9816 13H10.9816ZM11.4786 14V15C12.0006 15 12.3216 14.6667 12.4441 14.518C12.5904 14.3402 12.6887 14.1421 12.7529 13.9883C12.8744 13.6969 12.9755 13.3121 12.9755 13H11.9755H10.9755C10.9755 12.9599 10.9797 12.9727 10.9632 13.043C10.9492 13.102 10.9289 13.1658 10.9071 13.2183C10.8813 13.2801 10.8725 13.2803 10.8999 13.247C10.9152 13.2284 10.9616 13.1751 11.0462 13.1219C11.1357 13.0656 11.2844 13 11.4786 13V14ZM11.9755 13H12.9755V11H11.9755H10.9755V13H11.9755ZM11.9755 11H12.9755C12.9755 10.6841 12.8691 10.2967 12.7487 10.0106C12.6845 9.8581 12.5871 9.66248 12.4442 9.48691C12.3302 9.34687 12.0091 9 11.4786 9V10V11C11.2756 11 11.1229 10.9292 11.0353 10.8728C10.9518 10.8191 10.9067 10.7662 10.893 10.7494C10.8683 10.719 10.8784 10.7226 10.9052 10.7862C10.9281 10.8406 10.9491 10.9057 10.9634 10.9648C10.9704 10.9934 10.9742 11.0144 10.976 11.0264C10.9783 11.0417 10.9755 11.0309 10.9755 11H11.9755ZM11.4786 10V9C10.9565 9 10.6355 9.33325 10.513 9.482C10.3667 9.65977 10.2684 9.85794 10.2042 10.0117C10.0827 10.3031 9.9816 10.6879 9.9816 11H10.9816H11.9816C11.9816 11.0401 11.9774 11.0273 11.994 10.957C12.0079 10.898 12.0282 10.8342 12.0501 10.7817C12.0758 10.7199 12.0846 10.7197 12.0572 10.753C12.0419 10.7716 11.9955 10.8249 11.9109 10.8781C11.8214 10.9344 11.6727 11 11.4786 11V10ZM10.9816 11H9.9816V13H10.9816H11.9816V11H10.9816ZM8.9942 13H7.9942C7.9942 13.3159 8.10064 13.7033 8.22103 13.9894C8.28519 14.1419 8.38263 14.3375 8.52553 14.5131C8.63951 14.6531 8.96067 15 9.49116 15V14V13C9.69417 13 9.84679 13.0708 9.93447 13.1272C10.0179 13.1809 10.063 13.2338 10.0767 13.2506C10.1014 13.281 10.0913 13.2774 10.0645 13.2138C10.0416 13.1594 10.0206 13.0943 10.0063 13.0352C9.99937 13.0066 9.99552 12.9856 9.99374 12.9736C9.99146 12.9583 9.9942 12.9691 9.9942 13H8.9942ZM9.49116 14V15C10.0132 15 10.3343 14.6667 10.4567 14.518C10.603 14.3402 10.7013 14.1421 10.7655 13.9883C10.887 13.6969 10.9881 13.3121 10.9881 13H9.98813H8.98813C8.98813 12.9599 8.99232 12.9727 8.97576 13.043C8.96184 13.102 8.94153 13.1658 8.91966 13.2183C8.89388 13.2801 8.8851 13.2803 8.91252 13.247C8.92778 13.2284 8.97423 13.1751 9.05886 13.1219C9.1483 13.0656 9.29701 13 9.49116 13V14ZM9.98813 13H10.9881V11H9.98813H8.98813V13H9.98813ZM9.98813 11H10.9881C10.9881 10.6841 10.8817 10.2967 10.7613 10.0106C10.6971 9.8581 10.5997 9.66248 10.4568 9.48691C10.3428 9.34687 10.0217 9 9.49116 9V10V11C9.28816 11 9.13553 10.9292 9.04786 10.8728C8.96438 10.8191 8.91929 10.7662 8.90564 10.7494C8.88089 10.719 8.89105 10.7226 8.91782 10.7862C8.9407 10.8406 8.96173 10.9057 8.97603 10.9648C8.98296 10.9934 8.98681 11.0144 8.98859 11.0264C8.99087 11.0417 8.98813 11.0309 8.98813 11H9.98813ZM9.49116 10V9C8.96911 9 8.64807 9.33325 8.52564 9.482C8.37931 9.65977 8.281 9.85794 8.21685 10.0117C8.09529 10.3031 7.9942 10.6879 7.9942 11H8.9942H9.9942C9.9942 11.0401 9.99001 11.0273 10.0066 10.957C10.0205 10.898 10.0408 10.8342 10.0627 10.7817C10.0885 10.7199 10.0972 10.7197 10.0698 10.753C10.0545 10.7716 10.0081 10.8249 9.92347 10.8781C9.83403 10.9344 9.68532 11 9.49116 11V10ZM8.9942 11H7.9942V13H8.9942H9.9942V11H8.9942Z" fill="#0E121B" mask="url(#path-1-outside-1_2142_5677)"/>
</g>
<defs>
<filter id="filter0_d_2142_5677" x="0" y="0" width="19" height="20" filterUnits="userSpaceOnUse" color-interpolation-filters="sRGB">
<feFlood flood-opacity="0" result="BackgroundImageFix"/>
<feColorMatrix in="SourceAlpha" type="matrix" values="0 0 0 0 0 0 0 0 0 0 0 0 0 0 0 0 0 0 127 0" result="hardAlpha"/>
<feOffset dy="1"/>
<feGaussianBlur stdDeviation="1"/>
<feColorMatrix type="matrix" values="0 0 0 0 0 0 0 0 0 0 0 0 0 0 0 0 0 0 1 0"/>
<feBlend mode="normal" in2="BackgroundImageFix" result="effect1_dropShadow_2142_5677"/>
<feBlend mode="normal" in="SourceGraphic" in2="effect1_dropShadow_2142_5677" result="shape"/>
</filter>
</defs>
</svg>
