<svg width="24" height="21" viewBox="0 0 24 21" fill="none" xmlns="http://www.w3.org/2000/svg">
<path d="M21.75 10.5C22.9688 10.5 24 11.5313 24 12.75V18.75C24 20.0156 22.9688 21 21.75 21H15.75C14.4844 21 13.5 20.0156 13.5 18.75V7.5C13.5 3.375 16.8281 0 21 0H21.375C21.9844 0 22.5 0.515625 22.5 1.125V3.375C22.5 4.03125 21.9844 4.5 21.375 4.5H21C19.3125 4.5 18 5.85938 18 7.5V10.5H21.75ZM8.25 10.5C9.46875 10.5 10.5 11.5313 10.5 12.75V18.75C10.5 20.0156 9.46875 21 8.25 21H2.25C0.984375 21 0 20.0156 0 18.75V7.5C0 3.375 3.32813 0 7.5 0H7.875C8.48438 0 9 0.515625 9 1.125V3.375C9 4.03125 8.48438 4.5 7.875 4.5H7.5C5.8125 4.5 4.5 5.85938 4.5 7.5V10.5H8.25Z" fill="#4865DB"/>
</svg>
