<svg width="38" height="39" viewBox="0 0 38 39" fill="none" xmlns="http://www.w3.org/2000/svg">
<ellipse cx="18.9996" cy="19.082" rx="18.9996" ry="18.9997" fill="#B8B1FF"/>
<path d="M18.9999 31.4202H22.749C23.9306 31.4202 24.4854 30.3542 23.6018 29.7815L23.5245 29.7313C20.9435 28.059 17.0566 28.059 14.4756 29.7313L14.3979 29.7815C13.5143 30.3542 14.0695 31.4202 15.2511 31.4202H18.9999Z" fill="#21214D"/>
<path d="M13.4998 20.6409C13.8038 20.5041 14.1025 20.3518 14.3748 20.1595C15.2643 19.5303 15.8274 18.4637 15.8449 17.3746C15.8475 17.2243 15.8393 17.0696 15.7775 16.9325C15.6261 16.5974 15.185 16.4715 14.8318 16.574C14.4789 16.6764 14.2026 16.9503 13.974 17.2385C13.7453 17.5263 13.5444 17.8418 13.2645 18.0804C13.021 18.2879 12.7279 18.4287 12.4315 18.5496C11.5535 18.9075 10.5028 19.0978 9.69187 18.6061C9.52633 18.5057 9.37764 18.3804 9.22762 18.2579C8.8496 17.9482 8.44514 17.6452 7.97097 17.5279C7.49646 17.4106 6.93307 17.5236 6.64658 17.9192C6.40867 18.2476 6.409 18.7062 6.5653 19.0806C6.72126 19.4547 7.01237 19.7567 7.32397 20.0161C8.34832 20.8676 9.68592 21.3477 11.0166 21.2883C11.8764 21.2499 12.715 20.9942 13.4998 20.6409Z" fill="#21214D"/>
<path d="M24.5003 20.6409C24.1963 20.5041 23.8976 20.3518 23.6253 20.1595C22.7358 19.5303 22.1727 18.4637 22.1552 17.3746C22.1525 17.2243 22.1608 17.0696 22.2226 16.9325C22.3739 16.5974 22.8151 16.4715 23.168 16.574C23.5212 16.6764 23.7974 16.9503 24.0261 17.2385C24.2548 17.5263 24.4557 17.8418 24.7355 18.0804C24.9791 18.2879 25.2722 18.4287 25.5686 18.5496C26.4466 18.9075 27.4973 19.0978 28.3082 18.6061C28.4737 18.5057 28.6225 18.3804 28.7725 18.2579C29.1505 17.9482 29.5549 17.6452 30.0291 17.5279C30.5036 17.4106 31.067 17.5236 31.3535 17.9192C31.5914 18.2476 31.5911 18.7062 31.4348 19.0806C31.2788 19.4547 30.9877 19.7567 30.6761 20.0161C29.6518 20.8676 28.3142 21.3477 26.9835 21.2883C26.1237 21.2499 25.2851 20.9942 24.5003 20.6409Z" fill="#21214D"/>
<path opacity="0.3" d="M10.9522 11.4652C12.2108 10.5661 13.2167 10.0076 13.9509 10.4702C14.6851 10.9328 14.6987 12.5183 13.6182 13.0939C12.5376 13.6695 9.45764 15.4852 5.15803 14.3528C4.49881 14.2253 5.37346 12.6683 7.174 12.7C8.97454 12.7321 10.5035 11.7774 10.9522 11.4652Z" fill="#21214D"/>
<path opacity="0.3" d="M27.048 11.4652C25.7894 10.5661 24.7836 10.0076 24.0494 10.4702C23.3151 10.9328 23.3016 12.5183 24.3821 13.0939C25.4626 13.6695 28.5426 15.4852 32.8422 14.3528C33.5014 14.2253 32.6268 12.6683 30.8262 12.7C29.0257 12.7321 27.4968 11.7774 27.048 11.4652Z" fill="#21214D"/>
</svg>
