<svg width="30" height="30" viewBox="0 0 30 30" fill="none" xmlns="http://www.w3.org/2000/svg">
<circle cx="14.9998" cy="14.9998" r="14.9998" fill="white"/>
<path d="M14.9999 24.7404H17.9598C18.8926 24.7404 19.3306 23.8988 18.6331 23.4467L18.572 23.407C16.5344 22.0868 13.4657 22.0868 11.428 23.407L11.3667 23.4467C10.6692 23.8988 11.1074 24.7404 12.0403 24.7404H14.9999Z" fill="#21214D"/>
<path d="M10.6577 16.2304C10.8977 16.1224 11.1335 16.0021 11.3485 15.8503C12.0507 15.3536 12.4953 14.5115 12.5091 13.6517C12.5112 13.533 12.5047 13.4109 12.4559 13.3026C12.3364 13.0381 11.9881 12.9387 11.7093 13.0196C11.4306 13.1005 11.2126 13.3167 11.032 13.5442C10.8515 13.7714 10.6929 14.0206 10.4719 14.2089C10.2797 14.3727 10.0483 14.4839 9.81429 14.5794C9.12116 14.8619 8.29158 15.0121 7.6514 14.624C7.5207 14.5447 7.40332 14.4458 7.28488 14.349C6.98644 14.1046 6.66713 13.8653 6.29278 13.7727C5.91817 13.6801 5.47338 13.7693 5.2472 14.0816C5.05937 14.3409 5.05964 14.703 5.18303 14.9986C5.30616 15.2939 5.53599 15.5323 5.78199 15.7371C6.59069 16.4094 7.6467 16.7884 8.69723 16.7415C9.37602 16.7112 10.0381 16.5093 10.6577 16.2304Z" fill="#21214D"/>
<path d="M19.3425 16.2304C19.1025 16.1224 18.8666 16.0021 18.6517 15.8503C17.9494 15.3536 17.5049 14.5115 17.4911 13.6517C17.489 13.533 17.4955 13.4109 17.5443 13.3026C17.6638 13.0381 18.012 12.9387 18.2906 13.0196C18.5695 13.1005 18.7876 13.3167 18.9681 13.5442C19.1486 13.7714 19.3072 14.0206 19.5282 14.2089C19.7205 14.3727 19.9519 14.4839 20.1859 14.5794C20.879 14.8619 21.7086 15.0121 22.3487 14.624C22.4794 14.5447 22.5969 14.4458 22.7153 14.349C23.0137 14.1046 23.333 13.8653 23.7074 13.7727C24.082 13.6801 24.5268 13.7693 24.7529 14.0816C24.9408 14.3409 24.9405 14.703 24.8171 14.9986C24.694 15.2939 24.4642 15.5323 24.2182 15.7371C23.4095 16.4094 22.3534 16.7884 21.3029 16.7415C20.6241 16.7112 19.9621 16.5093 19.3425 16.2304Z" fill="#21214D"/>
<path opacity="0.3" d="M8.64664 8.98623C9.6403 8.27639 10.4344 7.83552 11.0141 8.20074C11.5937 8.56596 11.6044 9.81763 10.7514 10.2721C9.89832 10.7265 7.46673 12.16 4.07226 11.266C3.55182 11.1653 4.24235 9.93606 5.66384 9.96111C7.08533 9.98641 8.29238 9.23275 8.64664 8.98623Z" fill="#21214D"/>
<path opacity="0.3" d="M21.3542 8.98623C20.3605 8.27639 19.5664 7.83552 18.9868 8.20074C18.4071 8.56596 18.3964 9.81763 19.2495 10.2721C20.1025 10.7265 22.5341 12.16 25.9285 11.266C26.449 11.1653 25.7585 9.93606 24.337 9.96111C22.9155 9.98641 21.7084 9.23275 21.3542 8.98623Z" fill="#21214D"/>
</svg>
