<svg width="16" height="16" viewBox="0 0 16 16" fill="none" xmlns="http://www.w3.org/2000/svg">
<path d="M14.1069 7.37033C14.1392 7.79011 14.1392 8.20989 14.1069 8.59738L15.1402 9.2109C15.4308 9.37235 15.5922 9.72755 15.4954 10.0827C15.1402 11.439 14.3975 12.666 13.4288 13.667C13.1704 13.893 12.783 13.9576 12.4923 13.7962L11.459 13.1826C11.2007 13.3764 10.7164 13.667 10.3934 13.7962V14.9909C10.3934 15.3461 10.1674 15.6367 9.81222 15.7336C8.4883 16.0888 7.03523 16.0888 5.71131 15.7336C5.3884 15.669 5.13008 15.3138 5.13008 14.9909V13.7962C4.80717 13.667 4.32281 13.3764 4.06449 13.1826L3.03119 13.7962C2.74057 13.9576 2.35309 13.893 2.09476 13.667C1.12604 12.666 0.38336 11.439 0.0281628 10.0827C-0.0687091 9.72755 0.092744 9.37235 0.38336 9.2109L1.41666 8.59738C1.38437 8.43592 1.38437 8.1776 1.38437 7.98385C1.38437 7.8224 1.38437 7.56408 1.41666 7.37033L0.38336 6.7891C0.092744 6.62765 -0.0687091 6.27245 0.0281628 5.91726C0.38336 4.56105 1.12604 3.33401 2.09476 2.333C2.35309 2.10696 2.74057 2.04238 3.03119 2.20383L4.06449 2.81736C4.32281 2.62361 4.80717 2.333 5.13008 2.20383V1.00908C5.13008 0.653885 5.35611 0.363269 5.71131 0.266398C7.03523 -0.0887992 8.4883 -0.0887992 9.81222 0.266398C10.1351 0.330979 10.3934 0.686176 10.3934 1.00908V2.20383C10.7164 2.333 11.2007 2.62361 11.459 2.81736L12.4923 2.20383C12.783 2.04238 13.1704 2.10696 13.4288 2.333C14.3975 3.33401 15.1402 4.56105 15.4954 5.91726C15.5922 6.27245 15.4308 6.62765 15.1402 6.7891L14.1069 7.37033ZM12.3955 9.43693C12.6538 8.08073 12.6538 7.91927 12.3955 6.56307L13.8163 5.7558C13.6225 5.17457 13.1059 4.33501 12.7184 3.88295L11.2976 4.69021C10.2966 3.81837 10.1351 3.72149 8.8435 3.26942V1.6226C8.55289 1.59031 8.06853 1.52573 7.77791 1.52573C7.455 1.52573 6.97064 1.59031 6.68003 1.6226V3.26942C5.3884 3.72149 5.25924 3.81837 4.22594 4.69021L2.80516 3.88295C2.3208 4.43189 1.9656 5.0777 1.70727 5.7558L3.12806 6.56307C2.86974 7.91927 2.86974 8.08073 3.12806 9.43693L1.70727 10.2442C1.90102 10.8254 2.41767 11.665 2.80516 12.1171L4.22594 11.3098C5.22695 12.1816 5.3884 12.2785 6.68003 12.7306V14.3774C6.97064 14.4097 7.455 14.4743 7.77791 14.4743C8.06853 14.4743 8.55289 14.4097 8.8435 14.3774V12.7306C10.1351 12.2785 10.2643 12.1816 11.2976 11.3098L12.7184 12.1171C13.1059 11.665 13.6225 10.8254 13.8163 10.2442L12.3955 9.43693ZM7.77791 4.88396C9.45702 4.88396 10.8778 6.30474 10.8778 7.98385C10.8778 9.69526 9.45702 11.0838 7.77791 11.0838C6.06651 11.0838 4.67801 9.69526 4.67801 7.98385C4.67801 6.30474 6.06651 4.88396 7.77791 4.88396ZM7.77791 9.5338C8.61747 9.5338 9.32786 8.8557 9.32786 7.98385C9.32786 7.1443 8.61747 6.43391 7.77791 6.43391C6.90606 6.43391 6.22796 7.1443 6.22796 7.98385C6.22796 8.8557 6.90606 9.5338 7.77791 9.5338Z" fill="#21214D"/>
</svg>
