<svg width="16" height="12" viewBox="0 0 16 12" fill="none" xmlns="http://www.w3.org/2000/svg">
<path d="M3.00147 0H5.62775C5.81534 0 6.00293 0.1875 6.00293 0.375V1.125C6.00293 1.34375 5.81534 1.5 5.62775 1.5H3.00147C2.1573 1.5 1.50073 2.1875 1.50073 3V9C1.50073 9.84375 2.1573 10.5 3.00147 10.5H5.62775C5.81534 10.5 6.00293 10.6875 6.00293 10.875V11.625C6.00293 11.8438 5.81534 12 5.62775 12H3.00147C1.34441 12 0 10.6563 0 9V3C0 1.34375 1.34441 0 3.00147 0ZM10.2237 0.625C10.3488 0.46875 10.5989 0.46875 10.7553 0.625L15.8828 5.75C16.0391 5.90625 16.0391 6.125 15.8828 6.28125L10.7553 11.4063C10.5989 11.5625 10.3488 11.5625 10.2237 11.4063L9.59844 10.7813C9.44211 10.6563 9.44211 10.4063 9.59844 10.25L13.1314 6.8125H5.37763C5.15877 6.8125 5.00244 6.65625 5.00244 6.4375V5.5625C5.00244 5.375 5.15877 5.1875 5.37763 5.1875H13.1314L9.59844 1.78125C9.44211 1.625 9.44211 1.375 9.59844 1.25L10.2237 0.625Z" fill="#21214D"/>
</svg>
