<svg width="21" height="24" viewBox="0 0 21 24" fill="none" xmlns="http://www.w3.org/2000/svg">
<path d="M13.5 1.35938C13.4531 1.6875 13.3125 2.15625 13.125 2.39062L9.23438 6.75H12C12.375 6.75 12.75 7.125 12.75 7.5V8.25C12.75 8.67188 12.375 9 12 9H6.75C6.32812 9 6 8.67188 6 8.25V7.64062C6 7.35938 6.14062 6.89062 6.32812 6.65625L10.2188 2.25H7.5C7.07812 2.25 6.75 1.92188 6.75 1.5V0.75C6.75 0.375 7.07812 0 7.5 0H12.75C13.125 0 13.5 0.375 13.5 0.75V1.35938ZM9.375 12C9.98438 12 10.5 12.5156 10.5 13.125V14.3438C10.4531 14.6719 10.2656 15.1406 10.0312 15.375L4.3125 21H9.75C10.125 21 10.5 21.375 10.5 21.75V23.25C10.5 23.6719 10.125 24 9.75 24H1.125C0.46875 24 0 23.5312 0 22.875V21.7031C0 21.375 0.1875 20.9062 0.421875 20.6719L6.14062 15H1.5C1.07812 15 0.75 14.6719 0.75 14.25V12.75C0.75 12.375 1.07812 12 1.5 12H9.375ZM20.25 10.5C20.625 10.5 21 10.875 21 11.25V11.8594C20.9531 12.1875 20.8125 12.6562 20.625 12.8906L16.7344 17.25H19.5C19.875 17.25 20.25 17.625 20.25 18V18.75C20.25 19.1719 19.875 19.5 19.5 19.5H14.25C13.8281 19.5 13.5 19.1719 13.5 18.75V18.1406C13.5 17.8594 13.6406 17.3906 13.8281 17.1562L17.7188 12.75H15C14.5781 12.75 14.25 12.4219 14.25 12V11.25C14.25 10.875 14.5781 10.5 15 10.5H20.25Z" fill="white"/>
</svg>
