<svg width="9" height="10" viewBox="0 0 9 10" fill="none" xmlns="http://www.w3.org/2000/svg">
<path d="M5.625 0.566406C5.60547 0.703125 5.54688 0.898438 5.46875 0.996094L3.84766 2.8125H5C5.15625 2.8125 5.3125 2.96875 5.3125 3.125V3.4375C5.3125 3.61328 5.15625 3.75 5 3.75H2.8125C2.63672 3.75 2.5 3.61328 2.5 3.4375V3.18359C2.5 3.06641 2.55859 2.87109 2.63672 2.77344L4.25781 0.9375H3.125C2.94922 0.9375 2.8125 0.800781 2.8125 0.625V0.3125C2.8125 0.15625 2.94922 0 3.125 0H5.3125C5.46875 0 5.625 0.15625 5.625 0.3125V0.566406ZM3.90625 5C4.16016 5 4.375 5.21484 4.375 5.46875V5.97656C4.35547 6.11328 4.27734 6.30859 4.17969 6.40625L1.79688 8.75H4.0625C4.21875 8.75 4.375 8.90625 4.375 9.0625V9.6875C4.375 9.86328 4.21875 10 4.0625 10H0.46875C0.195312 10 0 9.80469 0 9.53125V9.04297C0 8.90625 0.078125 8.71094 0.175781 8.61328L2.55859 6.25H0.625C0.449219 6.25 0.3125 6.11328 0.3125 5.9375V5.3125C0.3125 5.15625 0.449219 5 0.625 5H3.90625ZM8.4375 4.375C8.59375 4.375 8.75 4.53125 8.75 4.6875V4.94141C8.73047 5.07812 8.67188 5.27344 8.59375 5.37109L6.97266 7.1875H8.125C8.28125 7.1875 8.4375 7.34375 8.4375 7.5V7.8125C8.4375 7.98828 8.28125 8.125 8.125 8.125H5.9375C5.76172 8.125 5.625 7.98828 5.625 7.8125V7.55859C5.625 7.44141 5.68359 7.24609 5.76172 7.14844L7.38281 5.3125H6.25C6.07422 5.3125 5.9375 5.17578 5.9375 5V4.6875C5.9375 4.53125 6.07422 4.375 6.25 4.375H8.4375Z" fill="#57577B"/>
</svg>
