<svg width="38" height="39" viewBox="0 0 38 39" fill="none" xmlns="http://www.w3.org/2000/svg">
<circle cx="18.9996" cy="19.0821" r="18.9996" fill="#FF9B99"/>
<path d="M13.5101 17.8255C13.8141 17.6887 14.1125 17.5364 14.3848 17.3441C15.2743 16.7153 15.8377 15.6483 15.8552 14.5592C15.8576 14.4088 15.8493 14.2542 15.7875 14.1171C15.6365 13.782 15.1954 13.6561 14.8421 13.7585C14.4889 13.861 14.2126 14.1349 13.984 14.423C13.7557 14.7112 13.5547 15.0264 13.2749 15.265C13.0313 15.4725 12.7382 15.6133 12.4418 15.7342C11.5639 16.0921 10.5131 16.2824 9.70221 15.7907C9.53666 15.6906 9.38764 15.565 9.23795 15.4424C8.8596 15.1328 8.45548 14.8298 7.98098 14.7125C7.5068 14.5952 6.94341 14.7082 6.65659 15.1037C6.41868 15.4322 6.41901 15.8908 6.57531 16.2652C6.7316 16.6393 7.02239 16.9416 7.33432 17.2007C8.35833 18.0522 9.69626 18.5323 11.0266 18.4728C11.8864 18.4345 12.7254 18.1788 13.5101 17.8255Z" fill="#21214D"/>
<path d="M24.5103 17.8255C24.2063 17.6887 23.9079 17.5364 23.6356 17.3441C22.7461 16.7153 22.1827 15.6483 22.1652 14.5592C22.1629 14.4088 22.1711 14.2542 22.2329 14.1171C22.3839 13.782 22.8251 13.6561 23.1783 13.7585C23.5315 13.861 23.8078 14.1349 24.0364 14.423C24.2648 14.7112 24.466 15.0264 24.7456 15.265C24.9891 15.4725 25.2822 15.6133 25.5786 15.7342C26.4565 16.0921 27.5073 16.2824 28.3182 15.7907C28.4838 15.6906 28.6328 15.565 28.7825 15.4424C29.1608 15.1328 29.5649 14.8298 30.0395 14.7125C30.5136 14.5952 31.077 14.7082 31.3638 15.1037C31.6017 15.4322 31.6014 15.8908 31.4451 16.2652C31.2888 16.6393 30.998 16.9416 30.6861 17.2007C29.6621 18.0522 28.3242 18.5323 26.9938 18.4728C26.134 18.4345 25.2951 18.1788 24.5103 17.8255Z" fill="#21214D"/>
<path opacity="0.3" d="M10.9622 8.64974C12.2211 7.75062 13.227 7.19219 13.9612 7.6548C14.6951 8.11741 14.709 9.70283 13.6284 10.2785C12.5476 10.8541 9.4676 12.6698 5.16831 11.5374C4.5091 11.4099 5.38376 9.85285 7.18397 9.88457C8.9845 9.91663 10.5134 8.962 10.9622 8.64974Z" fill="#21214D"/>
<path opacity="0.3" d="M27.0583 8.64974C25.7994 7.75062 24.7935 7.19219 24.0596 7.6548C23.3254 8.11741 23.3115 9.70283 24.392 10.2785C25.4729 10.8541 28.5529 12.6698 32.8522 11.5374C33.5114 11.4099 32.6367 9.85285 30.8365 9.88457C29.036 9.91663 27.5071 8.962 27.0583 8.64974Z" fill="#21214D"/>
<path d="M27.5929 29.6875C26.9872 30.7237 24.7403 30.8268 24.0675 29.8894C22.6275 28.1086 20.21 28.4404 19.0079 28.4404C17.8104 28.4404 15.3926 28.1086 13.9529 29.8894C13.2801 30.8268 11.0332 30.7237 10.4275 29.6875C10.0194 28.9787 9.14476 27.8711 10.6116 25.6641L10.6205 25.6506C10.8581 25.3591 11.1049 25.0812 11.3607 24.8165C13.4642 22.6231 16.1196 21.3133 19.0079 21.3133C21.8966 21.3133 24.5562 22.6231 26.6601 24.8165C26.9155 25.0812 27.1624 25.3591 27.3999 25.6506L27.4089 25.6641C28.8757 27.8711 28.001 28.9787 27.5929 29.6875Z" fill="#21214D"/>
<path d="M11.8091 26.5252C12.3295 27.3463 13.9397 26.8976 14.6125 26.5252C16.3301 25.4757 18.2363 25.597 19.0482 25.597C19.8601 25.597 21.6904 25.4757 23.408 26.5252C24.0807 26.8976 25.6913 27.3463 26.2114 26.5252C26.3505 26.3048 26.4919 26.0332 26.5811 25.7206C26.6499 25.4807 26.7893 24.949 26.5986 24.753C26.3611 24.5085 26.1169 24.2752 25.8657 24.0539C25.6146 23.8321 25.3572 23.6226 25.0935 23.4254C23.2969 22.0812 21.2195 21.3132 19.0079 21.3132C16.7966 21.3132 14.7218 22.0808 12.9266 23.4254C12.6632 23.6223 12.4055 23.8321 12.1547 24.0535C11.9036 24.2752 11.6594 24.5085 11.4215 24.753C11.2311 24.949 11.3706 25.4807 11.439 25.7206C11.5285 26.0332 11.6699 26.3048 11.8091 26.5252Z" fill="white"/>
<path d="M11.8091 26.5252C12.3295 27.3463 13.9397 26.8976 14.6125 26.5252C16.3301 25.4757 18.2363 25.597 19.0482 25.597C19.8601 25.597 21.6904 25.4757 23.408 26.5252C24.0807 26.8976 25.6913 27.3463 26.2114 26.5252C26.3505 26.3048 26.4919 26.0332 26.5811 25.7206C26.6499 25.4807 26.7893 24.949 26.5986 24.753C26.3611 24.5085 26.1169 24.2752 25.8657 24.0539C25.6146 23.8321 25.3572 23.6226 25.0935 23.4254C23.2969 22.0812 21.2195 21.3132 19.0079 21.3132C16.7966 21.3132 14.7218 22.0808 12.9266 23.4254C12.6632 23.6223 12.4055 23.8321 12.1547 24.0535C11.9036 24.2752 11.6594 24.5085 11.4215 24.753C11.2311 24.949 11.3706 25.4807 11.439 25.7206C11.5285 26.0332 11.6699 26.3048 11.8091 26.5252Z" fill="white"/>
<path d="M11.809 26.5248C12.307 27.3126 13.8111 26.9312 14.5254 26.57C14.5152 26.4822 14.503 26.3922 14.4928 26.2983C13.7642 26.6596 12.2295 27.0883 11.7049 26.3515C11.7396 26.4128 11.7743 26.4697 11.809 26.5248Z" fill="white"/>
<path d="M11.7049 26.3515C12.2295 27.0883 13.7642 26.6596 14.4928 26.2983C14.4806 26.2044 14.4704 26.1084 14.4601 26.0084C13.707 26.3716 12.1825 26.784 11.605 26.1574C11.6377 26.2248 11.6702 26.2883 11.7049 26.3515Z" fill="white"/>
<path d="M11.605 26.1574C12.1825 26.784 13.707 26.3716 14.4601 26.0084C14.4499 25.9083 14.4417 25.8064 14.4338 25.7003C13.6541 26.0656 12.1458 26.4617 11.5152 25.9475C11.5416 26.0209 11.5723 26.0901 11.605 26.1574Z" fill="white"/>
<path d="M11.5152 25.9475C12.1458 26.4617 13.6541 26.0656 14.4338 25.7003C14.4255 25.5942 14.4196 25.4862 14.4153 25.376C13.6234 25.7413 12.0947 26.1839 11.4375 25.7206C11.46 25.7982 11.4866 25.874 11.5152 25.9475Z" fill="white"/>
<path d="M14.5254 26.57C14.5561 26.5558 14.5849 26.5409 14.6114 26.5247C14.6051 26.435 14.5992 26.3412 14.5909 26.2453C14.5625 26.2618 14.5234 26.282 14.4928 26.2983C14.503 26.3922 14.5152 26.4822 14.5254 26.57Z" fill="white"/>
<path d="M14.4928 26.2983C14.5235 26.2821 14.5621 26.2616 14.5907 26.2452C14.5847 26.1493 14.5785 26.0514 14.5745 25.9493C14.5358 25.9678 14.4989 25.9879 14.4601 26.0084C14.4704 26.1084 14.4806 26.2044 14.4928 26.2983Z" fill="white"/>
<path d="M14.4601 26.0084C14.4989 25.9879 14.5358 25.9678 14.5745 25.9493C14.5682 25.8473 14.5642 25.7414 14.5623 25.6332C14.5174 25.6557 14.4786 25.6758 14.4338 25.7003C14.442 25.8064 14.4499 25.9083 14.4601 26.0084Z" fill="white"/>
<path d="M14.4338 25.7003C14.4786 25.6758 14.5174 25.6557 14.5623 25.6332C14.5583 25.5271 14.5585 25.4146 14.5585 25.3024C14.5095 25.3269 14.4622 25.3515 14.4153 25.376C14.4192 25.4862 14.4255 25.5942 14.4338 25.7003Z" fill="white"/>
<path d="M14.6114 26.5247C16.3278 25.4778 18.2297 25.5963 19.044 25.5963C19.044 25.5167 19.044 25.4329 19.044 25.3472C18.1991 25.3472 16.2951 25.233 14.5909 26.2453C14.5992 26.3412 14.6051 26.435 14.6114 26.5247Z" fill="white"/>
<path d="M14.5909 26.2453C16.2951 25.233 18.1991 25.3472 19.044 25.3472C19.044 25.2615 19.0406 25.1738 19.0406 25.082C18.1303 25.082 16.2527 25.0105 14.5731 25.9493C14.577 26.0514 14.5833 26.1494 14.5892 26.2453L14.5909 26.2453Z" fill="white"/>
<path d="M14.5742 25.9495C16.2539 25.0106 18.1314 25.0821 19.0417 25.0821C19.0417 24.9902 19.0417 24.8941 19.0417 24.7962C18.0641 24.7962 16.2151 24.772 14.5619 25.6332C14.5652 25.7414 14.5679 25.8474 14.5742 25.9495Z" fill="white"/>
<path d="M14.5623 25.6332C16.2154 24.772 18.0643 24.7961 19.0419 24.7961C19.0419 24.6981 19.042 24.5983 19.0387 24.4963C18.0325 24.4963 16.1998 24.4757 14.5569 25.3024C14.5569 25.4146 14.5569 25.527 14.5609 25.6331L14.5623 25.6332Z" fill="white"/>
<path d="M19.044 25.5963C19.0473 25.5963 19.0473 25.5963 19.048 25.5963C19.048 25.5167 19.048 25.4329 19.048 25.3472C19.0447 25.3472 19.044 25.3472 19.044 25.3472C19.044 25.4329 19.044 25.5167 19.044 25.5963Z" fill="white"/>
<path d="M19.044 25.3472C19.044 25.3472 19.0473 25.3472 19.048 25.3472C19.048 25.2615 19.048 25.1737 19.048 25.0819C19.0447 25.0819 19.044 25.0821 19.0417 25.0821C19.0417 25.1739 19.0451 25.2615 19.0451 25.3472L19.044 25.3472Z" fill="white"/>
<path d="M19.0417 25.0821C19.045 25.0821 19.0457 25.0819 19.048 25.0819C19.048 24.9901 19.048 24.8941 19.048 24.7961C19.0447 24.7961 19.044 24.7962 19.0417 24.7962C19.0417 24.8941 19.0417 24.9902 19.0417 25.0821Z" fill="white"/>
<path d="M19.0419 24.7961C19.0452 24.7961 19.0459 24.796 19.0482 24.796C19.0482 24.698 19.0482 24.5983 19.0482 24.4962C19.0449 24.4962 19.0443 24.4962 19.04 24.4962C19.0433 24.5983 19.0432 24.698 19.0432 24.796L19.0419 24.7961Z" fill="white"/>
<path d="M19.048 25.5963C19.8603 25.5963 21.6889 25.4758 23.4074 26.5248C23.4259 26.4411 23.444 26.3556 23.4624 26.2637C21.7521 25.2392 19.8949 25.3472 19.048 25.3472C19.048 25.4329 19.048 25.5167 19.048 25.5963Z" fill="white"/>
<path d="M19.048 25.3472C19.8949 25.3472 21.7521 25.2392 23.4624 26.2637C23.4809 26.174 23.4991 26.082 23.5155 25.9861C21.8195 25.0105 19.9705 25.0819 19.048 25.0819C19.048 25.1737 19.048 25.2615 19.048 25.3472Z" fill="white"/>
<path d="M19.048 25.0819C19.9705 25.0819 21.8195 25.0105 23.5155 25.9861C23.534 25.8902 23.5502 25.7903 23.5645 25.6903C21.8828 24.7658 20.046 24.7981 19.048 24.7961C19.048 24.8941 19.048 24.9901 19.048 25.0819Z" fill="white"/>
<path d="M19.048 24.7961C20.046 24.7994 21.8828 24.7656 23.5645 25.6903C23.5787 25.5882 23.5929 25.4841 23.6032 25.3759C21.9297 24.4759 20.0809 24.4983 19.0482 24.4962C19.0482 24.5983 19.048 24.6981 19.048 24.7961Z" fill="white"/>
<path d="M23.4074 26.5248C24.0809 26.8983 25.6912 27.3452 26.2116 26.5247C26.2463 26.4697 26.2811 26.4127 26.3137 26.3515C25.7729 27.1148 24.1542 26.6352 23.4624 26.2637C23.444 26.3556 23.4259 26.4411 23.4074 26.5248Z" fill="white"/>
<path d="M23.4624 26.2637C24.1542 26.6352 25.7729 27.1148 26.3137 26.3515C26.3484 26.2882 26.3829 26.2248 26.4135 26.1574C25.8258 26.8003 24.2481 26.3555 23.5155 25.9861C23.4991 26.082 23.4809 26.174 23.4624 26.2637Z" fill="white"/>
<path d="M23.5156 25.9863C24.2483 26.3557 25.8258 26.8003 26.4135 26.1574C26.4463 26.0901 26.477 26.021 26.5055 25.9475C25.8708 26.4659 24.338 26.0556 23.5645 25.6903C23.5503 25.7903 23.5339 25.8904 23.5156 25.9863Z" fill="white"/>
<path d="M23.5645 25.6903C24.338 26.0556 25.8708 26.4659 26.5055 25.9475C26.5319 25.874 26.5587 25.7981 26.5811 25.7206C25.924 26.1839 24.3951 25.7433 23.6032 25.3759C23.5929 25.4841 23.5787 25.5882 23.5645 25.6903Z" fill="white"/>
<path d="M11.4378 25.7206C12.0786 26.1716 13.5502 25.7637 14.3563 25.4024C14.3256 25.0453 14.2542 24.3941 14.3807 24.0778C13.5133 24.437 12.1705 24.9066 11.4215 24.7535C11.2317 24.9494 11.3705 25.4798 11.4378 25.7206Z" fill="white"/>
<path d="M14.3561 25.4024C14.3766 25.3941 14.3969 25.3862 14.4153 25.376C14.3928 25.0147 14.3275 24.3597 14.4601 24.0412C14.4337 24.0535 14.407 24.0654 14.3804 24.0777C14.2539 24.3941 14.3254 25.0452 14.3561 25.4024Z" fill="white"/>
<path d="M14.4153 25.376C16.0908 24.4759 17.9971 24.4962 19.0359 24.4962C19.0326 24.1574 19.0327 23.5268 19.032 23.2329C17.8218 23.2329 16.0726 23.296 14.4603 24.0409C14.3276 24.3593 14.3928 25.0147 14.4153 25.376Z" fill="white"/>
<path d="M19.0359 24.4962C19.0392 24.4962 19.0393 24.4962 19.04 24.4962C19.0433 24.1574 19.0462 23.5268 19.0462 23.2329C19.0422 23.2329 19.036 23.2329 19.032 23.2329C19.0353 23.5268 19.0352 24.1574 19.0359 24.4962Z" fill="white"/>
<path d="M19.04 24.4962C19.044 24.4962 19.0462 24.4962 19.0482 24.4962C19.0515 24.1574 19.0513 23.5268 19.048 23.2329C19.048 23.2329 19.0479 23.2329 19.0446 23.2329C19.0446 23.5268 19.0406 24.1574 19.0383 24.4962H19.04Z" fill="white"/>
<path d="M19.0482 24.4962C20.0809 24.4995 21.9297 24.4758 23.6032 25.3759C23.6522 25.0269 23.7441 24.3861 23.6379 24.08C22.0113 23.3024 20.2705 23.235 19.048 23.2329C19.0513 23.5268 19.0515 24.1574 19.0482 24.4962Z" fill="white"/>
<path d="M23.6032 25.3759C24.3951 25.7433 25.924 26.1839 26.5811 25.7206C26.6485 25.4797 26.7893 24.9493 26.5973 24.7534C25.8503 24.9065 24.5053 24.4371 23.6379 24.08C23.7441 24.3861 23.6522 25.0269 23.6032 25.3759Z" fill="white"/>
<path d="M11.421 24.7535C12.17 24.9066 13.5131 24.4369 14.3804 24.0777C14.5111 23.7226 14.6436 23.3757 14.7823 23.041C13.9129 23.3982 13.066 23.8165 12.1537 24.0533C11.9027 24.2757 11.6578 24.5086 11.421 24.7535Z" fill="white"/>
<path d="M14.3807 24.0778C14.6725 23.939 14.9706 23.8228 15.2685 23.7248C15.3441 23.3942 15.4257 23.0739 15.5073 22.7677C15.2625 22.8494 15.0215 22.9431 14.7827 23.0411C14.644 23.3758 14.5113 23.7227 14.3807 24.0778Z" fill="white"/>
<path d="M15.2685 23.7248C16.636 23.2779 18.0218 23.2329 19.032 23.2329C19.032 22.89 19.0286 22.5572 19.0286 22.2368C17.8388 22.2335 16.6367 22.3819 15.506 22.7676C15.4244 23.0738 15.3427 23.3941 15.2672 23.7247L15.2685 23.7248Z" fill="white"/>
<path d="M19.0316 23.2329C19.0356 23.2329 19.0418 23.2329 19.0458 23.2329C19.0425 22.89 19.0396 22.5572 19.0376 22.2368C19.0343 22.2368 19.0313 22.2368 19.0293 22.2368C19.0293 22.5572 19.0326 22.89 19.0326 23.2329H19.0316Z" fill="white"/>
<path d="M19.0462 23.2329C19.0495 23.2329 19.0493 23.2329 19.0493 23.2329C19.0493 22.89 19.046 22.5572 19.0453 22.2368C19.042 22.2368 19.0413 22.2368 19.039 22.2368C19.0423 22.5572 19.0454 22.89 19.0474 23.2329H19.0462Z" fill="white"/>
<path d="M19.048 23.2329C20.0419 23.2362 21.3809 23.2776 22.7218 23.7144C22.6463 23.3837 22.5708 23.0656 22.4891 22.7595C21.383 22.384 20.2074 22.2409 19.0441 22.2368C19.0474 22.5572 19.048 22.89 19.048 23.2329Z" fill="white"/>
<path d="M22.7218 23.7144C23.028 23.8144 23.3338 23.9351 23.6379 24.08C23.5093 23.7228 23.3749 23.3758 23.2382 23.0432C22.9913 22.9411 22.7422 22.8452 22.4891 22.7595C22.5708 23.0656 22.6463 23.3837 22.7218 23.7144Z" fill="white"/>
<path d="M23.6379 24.08C24.5053 24.4371 25.8503 24.9065 26.5973 24.7534C26.3606 24.5085 26.1158 24.2756 25.8647 24.0532C24.9525 23.8185 24.1056 23.3983 23.2382 23.0432C23.3749 23.3758 23.5093 23.7228 23.6379 24.08Z" fill="white"/>
<path d="M12.1541 24.0533C13.3195 23.7512 14.3746 23.1535 15.5073 22.7677C15.5338 22.6881 15.5603 22.6103 15.5869 22.5328C14.4705 22.9144 13.4684 23.5288 12.3438 23.89C12.2806 23.9431 12.2174 23.9981 12.1541 24.0533Z" fill="white"/>
<path d="M12.3438 23.89C13.4684 23.5288 14.4705 22.9144 15.5869 22.5328C15.6133 22.4552 15.6399 22.3798 15.6664 22.3043C14.5868 22.6757 13.5684 23.2411 12.5357 23.7309C12.4704 23.7819 12.4071 23.8349 12.3438 23.89Z" fill="white"/>
<path d="M12.5357 23.7309C13.5684 23.2411 14.5868 22.6757 15.6664 22.3043C15.6929 22.2267 15.7193 22.1532 15.7479 22.0797C14.7029 22.443 13.6724 22.9573 12.7295 23.5757C12.6641 23.6267 12.599 23.6778 12.5357 23.7309Z" fill="white"/>
<path d="M12.7295 23.5757C13.6724 22.9573 14.7029 22.443 15.7479 22.0797C15.7743 22.0042 15.8009 21.9306 15.8295 21.8592C14.8029 22.2184 13.8294 22.749 12.9253 23.4246C12.86 23.4736 12.7948 23.5247 12.7295 23.5757Z" fill="white"/>
<path d="M15.5069 22.7677C16.6396 22.382 17.8457 22.2347 19.0376 22.2368C19.0343 22.1572 19.0314 22.0779 19.0294 22.0004C17.8518 21.9971 16.6986 22.1512 15.5863 22.5328C15.5599 22.6104 15.5335 22.6881 15.5069 22.7677Z" fill="white"/>
<path d="M15.5869 22.5328C16.6992 22.1511 17.8521 21.9982 19.0297 22.0002C19.0264 21.9207 19.0258 21.8429 19.0215 21.7653C17.8766 21.7653 16.7399 21.9328 15.6664 22.3043C15.6399 22.3798 15.6133 22.4552 15.5869 22.5328Z" fill="white"/>
<path d="M15.6664 22.3043C16.7399 21.9328 17.8766 21.7653 19.0215 21.7653C19.0182 21.6898 19.0178 21.6124 19.0155 21.5368C17.9011 21.5368 16.7785 21.7185 15.7479 22.0797C15.7193 22.1532 15.6929 22.2267 15.6664 22.3043Z" fill="white"/>
<path d="M15.7479 22.0797C16.7785 21.7185 17.9011 21.5368 19.0155 21.5368C19.0122 21.4613 19.0091 21.3878 19.0072 21.3123C17.9071 21.3123 16.8438 21.502 15.8295 21.8592C15.8009 21.9306 15.7743 22.0042 15.7479 22.0797Z" fill="white"/>
<path d="M19.0378 22.2368C19.0378 22.1572 19.0378 22.0779 19.0378 22.0003C19.0345 22.0003 19.0317 22.0002 19.0297 22.0002C19.033 22.0778 19.0358 22.1572 19.0378 22.2368Z" fill="white"/>
<path d="M19.0297 22.0002C19.033 22.0002 19.0358 22.0003 19.0378 22.0003C19.0345 21.9207 19.0346 21.8429 19.0346 21.7653C19.0306 21.7653 19.0263 21.7653 19.0204 21.7653C19.0244 21.8429 19.0266 21.9207 19.0286 22.0002H19.0297Z" fill="white"/>
<path d="M19.0215 21.7653C19.0278 21.7653 19.0316 21.7653 19.0356 21.7653C19.0356 21.6898 19.0356 21.6124 19.0356 21.5368C19.0273 21.5368 19.0233 21.5368 19.0151 21.5368C19.0184 21.6124 19.0192 21.6898 19.0215 21.7653Z" fill="white"/>
<path d="M19.0155 21.5368C19.0237 21.5368 19.0273 21.5368 19.0356 21.5368C19.0356 21.4613 19.0357 21.3878 19.0357 21.3123C19.0255 21.3123 19.0171 21.3123 19.0072 21.3123C19.0105 21.3878 19.0135 21.4613 19.0155 21.5368Z" fill="white"/>
<path d="M19.0378 22.2368C20.2052 22.2408 21.3809 22.384 22.4891 22.7595C22.4647 22.6799 22.4379 22.6022 22.4114 22.5247C21.3195 22.1553 20.1909 22.0024 19.0378 22.0003C19.0378 22.0779 19.0378 22.1572 19.0378 22.2368Z" fill="white"/>
<path d="M19.0378 22.0003C20.1909 22.0036 21.3195 22.1553 22.4114 22.5247C22.3849 22.4492 22.3585 22.3717 22.332 22.2961C21.2768 21.9349 20.1604 21.7694 19.0359 21.7653C19.0359 21.8429 19.036 21.9207 19.0393 22.0002L19.0378 22.0003Z" fill="white"/>
<path d="M19.0359 21.7653C20.1604 21.7694 21.2768 21.9349 22.332 22.2961C22.3056 22.2206 22.2788 22.1471 22.2523 22.0715C21.2339 21.7185 20.1319 21.5409 19.0359 21.5368C19.0359 21.6124 19.0359 21.6898 19.0359 21.7653Z" fill="white"/>
<path d="M19.0359 21.5368C20.1319 21.5409 21.2339 21.7185 22.2523 22.0715C22.2239 21.9981 22.1973 21.9245 22.1687 21.8531C21.1687 21.5041 20.1174 21.3164 19.0357 21.3123C19.0357 21.3878 19.0359 21.4613 19.0359 21.5368Z" fill="white"/>
<path d="M22.4891 22.7595C23.63 23.1452 24.6933 23.7511 25.8647 24.0532C25.8015 23.9981 25.7382 23.9431 25.6749 23.8901C24.5443 23.5288 23.5359 22.9084 22.4114 22.5247C22.4379 22.6022 22.4647 22.6799 22.4891 22.7595Z" fill="white"/>
<path d="M22.4114 22.5247C23.5359 22.9084 24.5443 23.5288 25.6749 23.8901C25.6117 23.837 25.5483 23.782 25.483 23.731C24.4421 23.2391 23.4198 22.6696 22.332 22.2961C22.3585 22.3717 22.3849 22.4492 22.4114 22.5247Z" fill="white"/>
<path d="M22.332 22.2961C23.4198 22.6696 24.4421 23.2391 25.483 23.731C25.4197 23.6779 25.3546 23.6268 25.2893 23.5758C24.3403 22.9553 23.3013 22.4369 22.2523 22.0715C22.2788 22.1471 22.3056 22.2206 22.332 22.2961Z" fill="white"/>
<path d="M22.2523 22.0715C23.3013 22.4369 24.3403 22.9553 25.2893 23.5758C25.224 23.5247 25.1584 23.4736 25.0931 23.4247C24.1849 22.745 23.2034 22.2123 22.1687 21.8531C22.1973 21.9245 22.2239 21.9981 22.2523 22.0715Z" fill="white"/>
</svg>
