<svg width="30" height="30" viewBox="0 0 30 30" fill="none" xmlns="http://www.w3.org/2000/svg">
<circle cx="14.9997" cy="14.9997" r="14.9997" fill="white"/>
<path d="M10.6657 14.0075C10.9057 13.8995 11.1413 13.7793 11.3562 13.6274C12.0585 13.131 12.5033 12.2886 12.5171 11.4288C12.5189 11.3101 12.5124 11.188 12.4636 11.0798C12.3444 10.8153 11.9961 10.7159 11.7173 10.7967C11.4384 10.8776 11.2203 11.0939 11.0398 11.3214C10.8595 11.5488 10.7009 11.7977 10.48 11.986C10.2877 12.1499 10.0563 12.261 9.82232 12.3565C9.12919 12.639 8.29962 12.7893 7.65945 12.4011C7.52875 12.322 7.4111 12.2229 7.29293 12.1261C6.99423 11.8817 6.67519 11.6425 6.30058 11.5499C5.92623 11.4573 5.48145 11.5465 5.25501 11.8587C5.06719 12.118 5.06745 12.4801 5.19084 12.7757C5.31423 13.071 5.5438 13.3097 5.79006 13.5142C6.59849 14.1865 7.65475 14.5655 8.70501 14.5186C9.3838 14.4883 10.0461 14.2864 10.6657 14.0075Z" fill="#21214D"/>
<path d="M19.3502 14.0075C19.1102 13.8995 18.8746 13.7793 18.6597 13.6274C17.9574 13.131 17.5126 12.2886 17.4988 11.4288C17.497 11.3101 17.5035 11.188 17.5523 11.0798C17.6715 10.8153 18.0198 10.7159 18.2986 10.7967C18.5775 10.8776 18.7956 11.0939 18.9761 11.3214C19.1564 11.5488 19.3152 11.7977 19.5359 11.986C19.7282 12.1499 19.9596 12.261 20.1936 12.3565C20.8867 12.639 21.7163 12.7893 22.3565 12.4011C22.4871 12.322 22.6048 12.2229 22.723 12.1261C23.0217 11.8817 23.3407 11.6425 23.7153 11.5499C24.0897 11.4573 24.5345 11.5465 24.7609 11.8587C24.9487 12.118 24.9484 12.4801 24.8251 12.7757C24.7017 13.071 24.4721 13.3097 24.2258 13.5142C23.4174 14.1865 22.3611 14.5655 21.3109 14.5186C20.6321 14.4883 19.9698 14.2864 19.3502 14.0075Z" fill="#21214D"/>
<path opacity="0.3" d="M8.65416 6.76335C9.64808 6.05352 10.4422 5.61265 11.0218 5.97787C11.6012 6.34309 11.6122 7.59474 10.7591 8.04917C9.90581 8.50361 7.47425 9.93709 4.08008 9.04309C3.55964 8.94239 4.25016 7.71318 5.67138 7.73822C7.09286 7.76352 8.2999 7.00987 8.65416 6.76335Z" fill="#21214D"/>
<path opacity="0.3" d="M21.3616 6.76335C20.3677 6.05352 19.5736 5.61265 18.9942 5.97787C18.4145 6.34309 18.4036 7.59474 19.2566 8.04917C20.1099 8.50361 22.5415 9.93709 25.9357 9.04309C26.4561 8.94239 25.7656 7.71318 24.3444 7.73822C22.9229 7.76352 21.7158 7.00987 21.3616 6.76335Z" fill="#21214D"/>
<path d="M21.7839 23.3722C21.3057 24.1903 19.5318 24.2717 19.0007 23.5316C17.8638 22.1257 15.9553 22.3877 15.0062 22.3877C14.0608 22.3877 12.152 22.1257 11.0154 23.5316C10.4843 24.2717 8.71039 24.1903 8.23221 23.3722C7.91004 22.8126 7.21952 21.9382 8.37752 20.1958L8.38456 20.1851C8.57213 19.9551 8.767 19.7357 8.96891 19.5267C10.6296 17.795 12.726 16.761 15.0062 16.761C17.2867 16.761 19.3865 17.795 21.0474 19.5267C21.2491 19.7357 21.444 19.9551 21.6315 20.1851L21.6386 20.1958C22.7966 21.9382 22.106 22.8126 21.7839 23.3722Z" fill="#21214D"/>
<path d="M9.32281 20.8757C9.73368 21.524 11.0049 21.1697 11.536 20.8757C12.892 20.0472 14.397 20.1429 15.0379 20.1429C15.6789 20.1429 17.1239 20.0472 18.4799 20.8757C19.011 21.1697 20.2825 21.524 20.6931 20.8757C20.8029 20.7017 20.9146 20.4873 20.985 20.2405C21.0392 20.0511 21.1493 19.6314 20.9988 19.4767C20.8112 19.2836 20.6185 19.0995 20.4202 18.9247C20.2219 18.7496 20.0187 18.5842 19.8106 18.4285C18.3922 17.3673 16.7521 16.761 15.0061 16.761C13.2604 16.761 11.6224 17.367 10.2051 18.4285C9.99716 18.584 9.79368 18.7496 9.59568 18.9244C9.39742 19.0995 9.20464 19.2836 9.01682 19.4767C8.86655 19.6314 8.97664 20.0511 9.03064 20.2405C9.10134 20.4873 9.21299 20.7017 9.32281 20.8757Z" fill="white"/>
<path d="M9.32281 20.8757C9.73368 21.524 11.0049 21.1697 11.536 20.8757C12.892 20.0472 14.397 20.1429 15.0379 20.1429C15.6789 20.1429 17.1239 20.0472 18.4799 20.8757C19.011 21.1697 20.2825 21.524 20.6931 20.8757C20.8029 20.7017 20.9146 20.4873 20.985 20.2405C21.0392 20.0511 21.1493 19.6314 20.9988 19.4767C20.8112 19.2836 20.6185 19.0995 20.4202 18.9247C20.2219 18.7496 20.0187 18.5842 19.8106 18.4285C18.3922 17.3673 16.7521 16.761 15.0061 16.761C13.2604 16.761 11.6224 17.367 10.2051 18.4285C9.99716 18.584 9.79368 18.7496 9.59568 18.9244C9.39742 19.0995 9.20464 19.2836 9.01682 19.4767C8.86655 19.6314 8.97664 20.0511 9.03064 20.2405C9.10134 20.4873 9.21299 20.7017 9.32281 20.8757Z" fill="white"/>
<path d="M9.32276 20.8754C9.71592 21.4974 10.9034 21.1963 11.4673 20.9111C11.4592 20.8418 11.4497 20.7707 11.4416 20.6966C10.8663 20.9818 9.65471 21.3203 9.24061 20.7386C9.268 20.787 9.29537 20.832 9.32276 20.8754Z" fill="white"/>
<path d="M9.24061 20.7386C9.65471 21.3203 10.8663 20.9818 11.4416 20.6966C11.4319 20.6225 11.4239 20.5466 11.4158 20.4677C10.8212 20.7545 9.61767 21.08 9.1617 20.5854C9.18752 20.6386 9.21321 20.6887 9.24061 20.7386Z" fill="white"/>
<path d="M9.1617 20.5854C9.61767 21.08 10.8212 20.7545 11.4158 20.4677C11.4077 20.3887 11.4012 20.3083 11.3949 20.2245C10.7794 20.5129 9.58868 20.8256 9.09081 20.4196C9.11168 20.4776 9.13592 20.5322 9.1617 20.5854Z" fill="white"/>
<path d="M9.09081 20.4196C9.58868 20.8256 10.7794 20.5129 11.3949 20.2245C11.3884 20.1407 11.3838 20.0555 11.3804 19.9685C10.7552 20.2569 9.54829 20.6063 9.02948 20.2405C9.04722 20.3018 9.06824 20.3616 9.09081 20.4196Z" fill="white"/>
<path d="M11.4673 20.9111C11.4916 20.8999 11.5142 20.8881 11.5352 20.8754C11.5302 20.8045 11.5255 20.7305 11.519 20.6548C11.4966 20.6678 11.4657 20.6837 11.4416 20.6966C11.4497 20.7707 11.4592 20.8418 11.4673 20.9111Z" fill="white"/>
<path d="M11.4416 20.6966C11.4658 20.6838 11.4963 20.6676 11.5188 20.6547C11.5141 20.579 11.5092 20.5016 11.5061 20.4211C11.4755 20.4357 11.4464 20.4516 11.4158 20.4677C11.4239 20.5466 11.4319 20.6225 11.4416 20.6966Z" fill="white"/>
<path d="M11.4158 20.4677C11.4464 20.4516 11.4755 20.4357 11.5061 20.4211C11.5011 20.3405 11.498 20.257 11.4964 20.1716C11.4609 20.1893 11.4304 20.2052 11.3949 20.2245C11.4015 20.3083 11.4077 20.3887 11.4158 20.4677Z" fill="white"/>
<path d="M11.3949 20.2245C11.4304 20.2052 11.4609 20.1893 11.4964 20.1716C11.4933 20.0878 11.4934 19.999 11.4934 19.9104C11.4547 19.9297 11.4174 19.9491 11.3804 19.9685C11.3835 20.0555 11.3884 20.1407 11.3949 20.2245Z" fill="white"/>
<path d="M11.5352 20.8754C12.8902 20.0488 14.3918 20.1424 15.0346 20.1424C15.0346 20.0795 15.0346 20.0134 15.0346 19.9457C14.3676 19.9457 12.8644 19.8556 11.519 20.6548C11.5255 20.7305 11.5302 20.8045 11.5352 20.8754Z" fill="white"/>
<path d="M11.519 20.6548C12.8644 19.8556 14.3676 19.9457 15.0346 19.9457C15.0346 19.878 15.0319 19.8088 15.0319 19.7363C14.3133 19.7363 12.831 19.6799 11.5049 20.4211C11.5081 20.5017 11.513 20.579 11.5177 20.6547L11.519 20.6548Z" fill="white"/>
<path d="M11.5058 20.4212C12.8319 19.68 14.3142 19.7364 15.0328 19.7364C15.0328 19.6639 15.0328 19.5881 15.0328 19.5107C14.261 19.5107 12.8013 19.4916 11.4961 20.1715C11.4988 20.257 11.5009 20.3407 11.5058 20.4212Z" fill="white"/>
<path d="M11.4964 20.1716C12.8015 19.4916 14.2612 19.5106 15.033 19.5106C15.033 19.4333 15.033 19.3545 15.0304 19.274C14.2361 19.274 12.7892 19.2577 11.4921 19.9103C11.4921 19.999 11.4922 20.0877 11.4953 20.1715L11.4964 20.1716Z" fill="white"/>
<path d="M15.0346 20.1424C15.0372 20.1424 15.0372 20.1424 15.0378 20.1424C15.0378 20.0795 15.0378 20.0134 15.0378 19.9457C15.0351 19.9457 15.0346 19.9457 15.0346 19.9457C15.0346 20.0134 15.0346 20.0795 15.0346 20.1424Z" fill="white"/>
<path d="M15.0346 19.9457C15.0346 19.9457 15.0372 19.9457 15.0378 19.9457C15.0378 19.878 15.0378 19.8088 15.0378 19.7363C15.0351 19.7363 15.0346 19.7364 15.0328 19.7364C15.0328 19.8089 15.0355 19.878 15.0355 19.9457L15.0346 19.9457Z" fill="white"/>
<path d="M15.0328 19.7364C15.0354 19.7364 15.0359 19.7363 15.0378 19.7363C15.0378 19.6638 15.0378 19.588 15.0378 19.5107C15.0351 19.5107 15.0346 19.5107 15.0328 19.5107C15.0328 19.5881 15.0328 19.6639 15.0328 19.7364Z" fill="white"/>
<path d="M15.033 19.5106C15.0356 19.5106 15.0361 19.5106 15.0379 19.5106C15.0379 19.4332 15.0379 19.3545 15.0379 19.2739C15.0353 19.2739 15.0348 19.2739 15.0315 19.2739C15.0341 19.3545 15.034 19.4332 15.034 19.5106L15.033 19.5106Z" fill="white"/>
<path d="M15.0378 20.1424C15.679 20.1424 17.1227 20.0472 18.4794 20.8754C18.494 20.8094 18.5083 20.7418 18.5228 20.6693C17.1726 19.8605 15.7064 19.9457 15.0378 19.9457C15.0378 20.0134 15.0378 20.0795 15.0378 20.1424Z" fill="white"/>
<path d="M15.0378 19.9457C15.7064 19.9457 17.1726 19.8605 18.5228 20.6693C18.5374 20.5984 18.5518 20.5258 18.5647 20.4501C17.2258 19.6799 15.766 19.7363 15.0378 19.7363C15.0378 19.8088 15.0378 19.878 15.0378 19.9457Z" fill="white"/>
<path d="M15.0378 19.7363C15.766 19.7363 17.2258 19.6799 18.5647 20.4501C18.5793 20.3744 18.5921 20.2955 18.6034 20.2166C17.2758 19.4867 15.8256 19.5123 15.0378 19.5107C15.0378 19.588 15.0378 19.6638 15.0378 19.7363Z" fill="white"/>
<path d="M15.0378 19.5107C15.8256 19.5133 17.2758 19.4866 18.6034 20.2166C18.6147 20.136 18.6258 20.0538 18.634 19.9684C17.3128 19.2578 15.8532 19.2755 15.0379 19.2739C15.0379 19.3545 15.0378 19.4333 15.0378 19.5107Z" fill="white"/>
<path d="M18.4794 20.8754C19.0111 21.1703 20.2824 21.5231 20.6933 20.8754C20.7207 20.8319 20.7481 20.7869 20.7739 20.7386C20.3469 21.3412 19.069 20.9626 18.5228 20.6693C18.5083 20.7418 18.494 20.8094 18.4794 20.8754Z" fill="white"/>
<path d="M18.5228 20.6693C19.069 20.9626 20.3469 21.3412 20.7739 20.7386C20.8013 20.6886 20.8285 20.6386 20.8527 20.5854C20.3886 21.0929 19.1431 20.7417 18.5647 20.4501C18.5518 20.5258 18.5374 20.5984 18.5228 20.6693Z" fill="white"/>
<path d="M18.5648 20.4503C19.1433 20.7419 20.3886 21.0929 20.8527 20.5854C20.8785 20.5322 20.9027 20.4777 20.9253 20.4197C20.4242 20.8289 19.2141 20.505 18.6034 20.2166C18.5922 20.2955 18.5793 20.3746 18.5648 20.4503Z" fill="white"/>
<path d="M18.6034 20.2166C19.2141 20.505 20.4242 20.8289 20.9253 20.4197C20.9462 20.3617 20.9672 20.3017 20.985 20.2405C20.4662 20.6063 19.2592 20.2584 18.634 19.9684C18.6258 20.0538 18.6147 20.136 18.6034 20.2166Z" fill="white"/>
<path d="M9.02969 20.2405C9.53562 20.5966 10.6974 20.2745 11.3338 19.9893C11.3096 19.7074 11.2532 19.1933 11.3531 18.9436C10.6683 19.2272 9.60814 19.5979 9.01682 19.477C8.86698 19.6317 8.97663 20.0504 9.02969 20.2405Z" fill="white"/>
<path d="M11.3336 19.9893C11.3498 19.9828 11.3659 19.9765 11.3804 19.9685C11.3626 19.6833 11.311 19.1661 11.4158 18.9147C11.3949 18.9244 11.3738 18.9338 11.3529 18.9435C11.2529 19.1933 11.3094 19.7073 11.3336 19.9893Z" fill="white"/>
<path d="M11.3804 19.9685C12.7032 19.2579 14.2081 19.2739 15.0282 19.2739C15.0256 19.0065 15.0257 18.5086 15.0252 18.2766C14.0697 18.2766 12.6888 18.3264 11.4159 18.9145C11.3112 19.1658 11.3626 19.6833 11.3804 19.9685Z" fill="white"/>
<path d="M15.0282 19.2739C15.0308 19.2739 15.0309 19.2739 15.0315 19.2739C15.0341 19.0065 15.0364 18.5086 15.0364 18.2766C15.0332 18.2766 15.0283 18.2766 15.0252 18.2766C15.0278 18.5086 15.0277 19.0065 15.0282 19.2739Z" fill="white"/>
<path d="M15.0315 19.2739C15.0346 19.2739 15.0364 19.2739 15.0379 19.2739C15.0406 19.0065 15.0404 18.5086 15.0378 18.2766C15.0378 18.2766 15.0377 18.2766 15.0351 18.2766C15.0351 18.5086 15.0319 19.0065 15.0301 19.2739H15.0315Z" fill="white"/>
<path d="M15.0379 19.2739C15.8532 19.2765 17.3128 19.2578 18.634 19.9684C18.6727 19.6929 18.7452 19.187 18.6614 18.9453C17.3772 18.3314 16.0029 18.2782 15.0378 18.2766C15.0404 18.5086 15.0406 19.0065 15.0379 19.2739Z" fill="white"/>
<path d="M18.634 19.9684C19.2592 20.2584 20.4662 20.6063 20.985 20.2405C21.0382 20.0504 21.1493 19.6316 20.9978 19.477C20.408 19.5978 19.3462 19.2273 18.6614 18.9453C18.7452 19.187 18.6727 19.6929 18.634 19.9684Z" fill="white"/>
<path d="M9.01648 19.477C9.6078 19.5979 10.6681 19.2271 11.3529 18.9435C11.456 18.6632 11.5606 18.3893 11.6701 18.125C10.9838 18.407 10.3151 18.7373 9.59491 18.9242C9.39672 19.0998 9.2034 19.2837 9.01648 19.477Z" fill="white"/>
<path d="M11.3531 18.9436C11.5835 18.834 11.8188 18.7423 12.054 18.6649C12.1136 18.4039 12.1781 18.151 12.2425 17.9093C12.0492 17.9738 11.859 18.0478 11.6705 18.1251C11.5609 18.3893 11.4562 18.6632 11.3531 18.9436Z" fill="white"/>
<path d="M12.054 18.6649C13.1335 18.3121 14.2276 18.2766 15.0252 18.2766C15.0252 18.0059 15.0225 17.7431 15.0225 17.4902C14.0831 17.4876 13.1341 17.6047 12.2414 17.9092C12.177 18.1509 12.1125 18.4038 12.0529 18.6648L12.054 18.6649Z" fill="white"/>
<path d="M15.0248 18.2766C15.028 18.2766 15.0329 18.2766 15.036 18.2766C15.0334 18.0059 15.0311 17.7431 15.0295 17.4901C15.0269 17.4901 15.0246 17.4901 15.023 17.4901C15.023 17.7431 15.0256 18.0059 15.0256 18.2766H15.0248Z" fill="white"/>
<path d="M15.0364 18.2766C15.039 18.2766 15.0388 18.2766 15.0388 18.2766C15.0388 18.0059 15.0362 17.7431 15.0357 17.4901C15.033 17.4901 15.0325 17.4901 15.0307 17.4901C15.0333 17.7431 15.0357 18.0059 15.0373 18.2766H15.0364Z" fill="white"/>
<path d="M15.0378 18.2766C15.8224 18.2792 16.8796 18.3119 17.9381 18.6567C17.8785 18.3956 17.8189 18.1445 17.7545 17.9028C16.8812 17.6064 15.9531 17.4934 15.0347 17.4901C15.0373 17.7431 15.0378 18.0059 15.0378 18.2766Z" fill="white"/>
<path d="M17.9381 18.6567C18.1798 18.7356 18.4213 18.8309 18.6614 18.9453C18.5599 18.6633 18.4538 18.3894 18.3458 18.1268C18.1509 18.0462 17.9543 17.9705 17.7545 17.9028C17.8189 18.1445 17.8785 18.3956 17.9381 18.6567Z" fill="white"/>
<path d="M18.6614 18.9453C19.3462 19.2273 20.408 19.5978 20.9978 19.477C20.8108 19.2836 20.6176 19.0998 20.4194 18.9241C19.6992 18.7389 19.0306 18.4071 18.3458 18.1268C18.4538 18.3894 18.5599 18.6633 18.6614 18.9453Z" fill="white"/>
<path d="M9.59523 18.9242C10.5153 18.6857 11.3483 18.2138 12.2425 17.9093C12.2634 17.8465 12.2844 17.785 12.3053 17.7238C11.424 18.0251 10.6328 18.5101 9.74502 18.7953C9.69509 18.8372 9.64518 18.8807 9.59523 18.9242Z" fill="white"/>
<path d="M9.74502 18.7953C10.6328 18.5101 11.424 18.0251 12.3053 17.7238C12.3262 17.6626 12.3472 17.6031 12.3681 17.5434C11.5158 17.8367 10.7118 18.283 9.89647 18.6697C9.84493 18.71 9.79498 18.7518 9.74502 18.7953Z" fill="white"/>
<path d="M9.89647 18.6697C10.7118 18.283 11.5158 17.8367 12.3681 17.5434C12.389 17.4822 12.4099 17.4241 12.4324 17.3661C11.6075 17.6529 10.7938 18.059 10.0495 18.5472C9.99788 18.5875 9.94643 18.6278 9.89647 18.6697Z" fill="white"/>
<path d="M10.0495 18.5472C10.7938 18.059 11.6075 17.6529 12.4324 17.3661C12.4533 17.3065 12.4743 17.2484 12.4968 17.1921C11.6864 17.4756 10.9178 17.8946 10.204 18.4279C10.1525 18.4665 10.101 18.5069 10.0495 18.5472Z" fill="white"/>
<path d="M12.2422 17.9093C13.1364 17.6048 14.0886 17.4885 15.0295 17.4901C15.0269 17.4273 15.0247 17.3647 15.0231 17.3035C14.0934 17.3009 13.183 17.4225 12.3049 17.7238C12.284 17.7851 12.2631 17.8465 12.2422 17.9093Z" fill="white"/>
<path d="M12.3053 17.7238C13.1835 17.4225 14.0937 17.3018 15.0234 17.3034C15.0208 17.2406 15.0203 17.1792 15.0169 17.1179C14.113 17.1179 13.2156 17.2502 12.3681 17.5434C12.3472 17.6031 12.3262 17.6626 12.3053 17.7238Z" fill="white"/>
<path d="M12.3681 17.5434C13.2156 17.2502 14.113 17.1179 15.0169 17.1179C15.0143 17.0583 15.0139 16.9972 15.0121 16.9376C14.1324 16.9376 13.2461 17.0809 12.4324 17.3661C12.4099 17.4241 12.389 17.4822 12.3681 17.5434Z" fill="white"/>
<path d="M12.4324 17.3661C13.2461 17.0809 14.1324 16.9376 15.0121 16.9376C15.0095 16.878 15.0071 16.8199 15.0055 16.7603C14.1371 16.7603 13.2976 16.9101 12.4968 17.1921C12.4743 17.2484 12.4533 17.3065 12.4324 17.3661Z" fill="white"/>
<path d="M15.0297 17.4902C15.0297 17.4273 15.0297 17.3647 15.0297 17.3035C15.0271 17.3035 15.0249 17.3034 15.0234 17.3034C15.026 17.3646 15.0282 17.4273 15.0297 17.4902Z" fill="white"/>
<path d="M15.0234 17.3034C15.026 17.3034 15.0282 17.3035 15.0297 17.3035C15.0271 17.2406 15.0272 17.1792 15.0272 17.1179C15.0241 17.1179 15.0207 17.1179 15.016 17.1179C15.0191 17.1792 15.0209 17.2406 15.0225 17.3034H15.0234Z" fill="white"/>
<path d="M15.0169 17.1179C15.0218 17.1179 15.0248 17.1179 15.0279 17.1179C15.0279 17.0583 15.0279 16.9972 15.0279 16.9376C15.0214 16.9376 15.0183 16.9376 15.0118 16.9376C15.0144 16.9972 15.015 17.0583 15.0169 17.1179Z" fill="white"/>
<path d="M15.0121 16.9376C15.0186 16.9376 15.0214 16.9376 15.0279 16.9376C15.0279 16.878 15.0281 16.8199 15.0281 16.7603C15.02 16.7603 15.0134 16.7603 15.0055 16.7603C15.0081 16.8199 15.0105 16.878 15.0121 16.9376Z" fill="white"/>
<path d="M15.0297 17.4902C15.9514 17.4933 16.8796 17.6064 17.7545 17.9028C17.7352 17.84 17.714 17.7787 17.6931 17.7174C16.8311 17.4258 15.9401 17.3051 15.0297 17.3035C15.0297 17.3647 15.0297 17.4273 15.0297 17.4902Z" fill="white"/>
<path d="M15.0297 17.3035C15.9401 17.3061 16.8311 17.4258 17.6931 17.7174C17.6722 17.6578 17.6514 17.5966 17.6304 17.537C16.7974 17.2518 15.916 17.1211 15.0282 17.1179C15.0282 17.1792 15.0283 17.2406 15.0309 17.3034L15.0297 17.3035Z" fill="white"/>
<path d="M15.0282 17.1179C15.916 17.1211 16.7974 17.2518 17.6304 17.537C17.6095 17.4774 17.5884 17.4193 17.5675 17.3597C16.7635 17.081 15.8935 16.9408 15.0282 16.9376C15.0282 16.9972 15.0282 17.0583 15.0282 17.1179Z" fill="white"/>
<path d="M15.0282 16.9376C15.8935 16.9408 16.7635 17.081 17.5675 17.3597C17.545 17.3017 17.5241 17.2436 17.5015 17.1872C16.712 16.9117 15.882 16.7635 15.0281 16.7603C15.0281 16.8199 15.0282 16.878 15.0282 16.9376Z" fill="white"/>
<path d="M17.7545 17.9028C18.6551 18.2073 19.4946 18.6857 20.4194 18.9241C20.3695 18.8806 20.3195 18.8373 20.2695 18.7954C19.3769 18.5102 18.5809 18.0203 17.6931 17.7174C17.714 17.7787 17.7352 17.84 17.7545 17.9028Z" fill="white"/>
<path d="M17.6931 17.7174C18.5809 18.0203 19.3769 18.5102 20.2695 18.7954C20.2196 18.7535 20.1696 18.7101 20.118 18.6698C19.2963 18.2815 18.4892 17.8319 17.6304 17.537C17.6514 17.5966 17.6722 17.6578 17.6931 17.7174Z" fill="white"/>
<path d="M17.6304 17.537C18.4892 17.8319 19.2963 18.2815 20.118 18.6698C20.0681 18.6279 20.0167 18.5875 19.9651 18.5472C19.2159 18.0574 18.3957 17.6481 17.5675 17.3597C17.5884 17.4193 17.6095 17.4774 17.6304 17.537Z" fill="white"/>
<path d="M17.5675 17.3597C18.3957 17.6481 19.2159 18.0574 19.9651 18.5472C19.9136 18.507 19.8618 18.4666 19.8102 18.4279C19.0932 17.8914 18.3184 17.4708 17.5015 17.1872C17.5241 17.2436 17.545 17.3017 17.5675 17.3597Z" fill="white"/>
</svg>
