<svg width="38" height="38" viewBox="0 0 38 38" fill="none" xmlns="http://www.w3.org/2000/svg">
<ellipse cx="19" cy="19" rx="19" ry="19" fill="#FFC97C"/>
<path d="M15.2027 14.7179C15.2027 16.6377 13.8472 18.1941 12.1752 18.1941C10.5031 18.1941 9.14734 16.6377 9.14734 14.7179C9.14734 12.798 10.5031 11.2416 12.1752 11.2416C13.8472 11.2416 15.2027 12.798 15.2027 14.7179Z" fill="#21214D"/>
<path d="M28.8533 14.7179C28.8533 16.6377 27.4978 18.1941 25.8258 18.1941C24.1534 18.1941 22.798 16.6377 22.798 14.7179C22.798 12.798 24.1534 11.2416 25.8258 11.2416C27.4978 11.2416 28.8533 12.798 28.8533 14.7179Z" fill="#21214D"/>
<path d="M19.0009 31.9368C22.4674 31.9367 24.8514 30.8657 26.5721 29.5364C28.309 28.1945 29.3832 26.584 30.2372 25.429L30.2382 25.428C30.8934 24.5434 30.895 23.7545 30.6991 23.177L30.6962 23.1682C30.6715 23.0905 30.6384 23.012 30.5995 22.9309L30.5975 22.926C30.4594 22.6307 30.2717 22.4014 30.1063 22.26C30.0419 22.205 29.9873 22.1708 29.9481 22.1497C28.0124 23.0147 25.7739 23.3847 23.7938 23.5403C21.7672 23.6995 19.961 23.638 19.0009 23.6379C18.0406 23.6379 16.2338 23.6996 14.2069 23.5403C12.2268 23.3847 9.9883 23.0147 8.05261 22.1497C8.01346 22.1708 7.95873 22.205 7.89441 22.26C7.72906 22.4014 7.54133 22.6306 7.4032 22.926L7.40125 22.9309L7.34753 23.051C7.33141 23.0906 7.31714 23.13 7.30457 23.1692L7.30164 23.177L7.23816 23.4036C7.1163 23.9534 7.18953 24.6541 7.76257 25.428V25.429C8.61682 26.5842 9.6923 28.1943 11.4296 29.5364C13.1504 30.8657 15.5342 31.9368 19.0009 31.9368Z" fill="#21214D" stroke="#21214D"/>
<path d="M10.0395 25.6091C12.4245 27.1362 15.5626 28.0624 18.9998 28.0624C21.3738 28.0624 23.6053 27.6205 25.5435 26.844C26.7422 26.364 27.829 25.7561 28.7683 25.0458C29.072 24.8161 29.3598 24.5759 29.6311 24.3257C29.9024 24.0759 30.1572 23.8159 30.3944 23.5469C30.4431 23.4916 30.4911 23.4359 30.5383 23.3798C30.5483 23.3682 30.5583 23.3565 30.5683 23.3447L30.5826 23.3269C30.6298 23.27 30.6764 23.2126 30.7221 23.1549L30.7362 23.1375L30.7437 23.1276C30.8505 22.9919 30.9529 22.8541 31.0507 22.7145C30.8604 22.3078 30.5893 21.9929 30.3436 21.8094C30.269 21.7533 30.1967 21.7093 30.1299 21.6786C30.1298 21.6787 30.1298 21.6788 30.1297 21.6789C30.1045 21.6679 30.0805 21.6587 30.0574 21.6514C30.0381 21.6451 30.0194 21.6401 30.0014 21.6364C29.9851 21.633 29.9694 21.6306 29.9541 21.629L29.9537 21.6297L29.9541 21.6285C29.9227 21.6285 29.8965 21.6287 29.8702 21.6366L29.8701 21.6369C26.4611 23.2132 21.9364 23.1662 19.6513 23.1424C19.4073 23.1399 19.1888 23.1376 18.9999 23.1376C18.8107 23.1376 18.5918 23.1399 18.3475 23.1424C17.3127 23.1532 15.8201 23.1687 14.1798 23.0364C12.1957 22.8761 9.99558 22.4994 8.1289 21.6366C8.108 21.6308 8.08489 21.6283 8.0599 21.6291L8.04555 21.629L8.04529 21.6285C7.99282 21.6338 7.93273 21.6494 7.86975 21.6784L7.87052 21.6799L7.87029 21.68L7.86959 21.6786C7.58098 21.8098 7.19786 22.185 6.94861 22.715C6.99844 22.7858 7.05071 22.8566 7.10318 22.9275L7.10346 22.9269L7.10326 22.9277C7.15574 22.9986 7.20823 23.0668 7.26332 23.1376C7.27967 23.1579 7.29607 23.1783 7.31252 23.1989C7.35145 23.2476 7.39081 23.2969 7.43136 23.3448C7.45976 23.3784 7.48821 23.4112 7.51656 23.4441L7.51674 23.4443C7.54595 23.4782 7.57516 23.5121 7.60441 23.5467C7.84319 23.8169 8.09805 24.0769 8.36831 24.3262C8.62719 24.5626 8.89798 24.7919 9.18495 25.0097C9.20068 25.0218 9.21645 25.0338 9.23225 25.0458C9.3175 25.1102 9.40396 25.1739 9.49162 25.2366C9.66939 25.3642 9.85149 25.4879 10.0395 25.6091Z" fill="white"/>
</svg>
