<svg width="30" height="30" viewBox="0 0 30 30" fill="none" xmlns="http://www.w3.org/2000/svg">
<circle cx="15" cy="15" r="15" fill="white"/>
<path d="M12.0022 11.6192C12.0022 13.1349 10.9321 14.3636 9.61208 14.3636C8.29205 14.3636 7.22168 13.1349 7.22168 11.6192C7.22168 10.1036 8.29205 8.87484 9.61208 8.87484C10.9321 8.87484 12.0022 10.1036 12.0022 11.6192Z" fill="#21214D"/>
<path d="M22.7791 11.6192C22.7791 13.1349 21.709 14.3636 20.3889 14.3636C19.0686 14.3636 17.9985 13.1349 17.9985 11.6192C17.9985 10.1036 19.0686 8.87484 20.3889 8.87484C21.709 8.87484 22.7791 10.1036 22.7791 11.6192Z" fill="#21214D"/>
<path d="M10.0193 10.8047C10.0193 11.2839 9.63081 11.6724 9.15184 11.6724C8.67262 11.6724 8.28418 11.2839 8.28418 10.8047C8.28418 10.3255 8.67262 9.93702 9.15184 9.93702C9.63081 9.93702 10.0193 10.3255 10.0193 10.8047Z" fill="white"/>
<path d="M20.7959 10.8047C20.7959 11.2839 20.4075 11.6724 19.9282 11.6724C19.449 11.6724 19.0605 11.2839 19.0605 10.8047C19.0605 10.3255 19.449 9.93702 19.9282 9.93702C20.4075 9.93702 20.7959 10.3255 20.7959 10.8047Z" fill="white"/>
<path d="M15 25.5103C17.8053 25.5103 19.7509 24.6411 21.1592 23.5532C22.5707 22.4628 23.4451 21.1512 24.1104 20.2515C24.6868 19.4734 24.7027 18.7488 24.5176 18.2026H24.5166V18.2007C24.492 18.1232 24.4608 18.0481 24.4258 17.9751L24.4248 17.9741C24.2982 17.7033 24.1244 17.4879 23.9609 17.3481C23.8793 17.2783 23.803 17.2287 23.7383 17.2007C23.6748 17.1732 23.6337 17.1711 23.6133 17.1753C22.1102 17.8675 20.3426 18.1643 18.7617 18.2886C17.1768 18.4131 15.7694 18.3647 15 18.3647C14.2305 18.3648 12.8238 18.4131 11.2393 18.2886C9.65823 18.1643 7.88987 17.8676 6.38672 17.1753C6.3662 17.1713 6.32563 17.1734 6.2627 17.2007C6.19795 17.2287 6.12083 17.2782 6.03906 17.3481C5.87575 17.4879 5.7027 17.7035 5.57617 17.9741L5.5752 17.9751C5.54021 18.0481 5.50928 18.1231 5.48438 18.2007L5.4834 18.2026C5.29823 18.7488 5.31354 19.4734 5.88965 20.2515C6.555 21.1512 7.43027 22.4628 8.8418 23.5532C10.25 24.641 12.195 25.5102 15 25.5103Z" fill="#21214D" stroke="#21214D" stroke-width="0.195656"/>
<path d="M7.926 20.2176C9.80892 21.4232 12.2864 22.1544 15 22.1544C16.8742 22.1544 18.6358 21.8056 20.166 21.1926C21.1124 20.8136 21.9704 20.3337 22.7119 19.7729C22.9517 19.5916 23.1789 19.4019 23.3931 19.2044C23.6072 19.0072 23.8084 18.8019 23.9957 18.5896C24.0341 18.5459 24.072 18.5019 24.1093 18.4577C24.1172 18.4485 24.1251 18.4392 24.1329 18.4299L24.1442 18.4159C24.1816 18.3709 24.2183 18.3257 24.2544 18.2801L24.2655 18.2664L24.2715 18.2585C24.3557 18.1514 24.4366 18.0426 24.5138 17.9324C24.3635 17.6114 24.1496 17.3627 23.9556 17.2179C23.8967 17.1735 23.8396 17.1388 23.7868 17.1146C23.7868 17.1147 23.7868 17.1148 23.7867 17.1149C23.7668 17.1061 23.7478 17.0989 23.7296 17.0931C23.7144 17.0881 23.6996 17.0842 23.6854 17.0813C23.6726 17.0786 23.6601 17.0767 23.6481 17.0755L23.6478 17.076L23.6481 17.0751C23.6233 17.0751 23.6026 17.0752 23.5818 17.0814L23.5817 17.0816C20.8905 18.3261 17.3183 18.289 15.5143 18.2703C15.3216 18.2683 15.1491 18.2665 15 18.2665C14.8507 18.2665 14.6778 18.2683 14.4849 18.2703C13.668 18.2787 12.4897 18.291 11.1947 18.1865C9.62827 18.06 7.89134 17.7626 6.41765 17.0814C6.40115 17.0768 6.38291 17.0749 6.36317 17.0755L6.35185 17.0755L6.35165 17.0751C6.31022 17.0792 6.26278 17.0915 6.21306 17.1144L6.21366 17.1157L6.21348 17.1157L6.21293 17.1146C5.98508 17.2182 5.68262 17.5144 5.48584 17.9328C5.52518 17.9887 5.56644 18.0446 5.60787 18.1005L5.60809 18.1001L5.60793 18.1007C5.64936 18.1567 5.69081 18.2105 5.7343 18.2665C5.74721 18.2825 5.76015 18.2986 5.77314 18.3148C5.80387 18.3533 5.83495 18.3922 5.86696 18.43C5.88938 18.4565 5.91184 18.4824 5.93422 18.5084L5.93437 18.5085C5.95743 18.5353 5.98049 18.5621 6.00358 18.5894C6.19209 18.8027 6.39329 19.008 6.60666 19.2048C6.81104 19.3915 7.02482 19.5725 7.25138 19.7444C7.26379 19.7539 7.27624 19.7634 7.28872 19.7729C7.35602 19.8238 7.42428 19.874 7.49348 19.9236C7.63383 20.0243 7.77759 20.1219 7.926 20.2176Z" fill="white"/>
</svg>
